<svg height="512" viewBox="0 0 128 128" width="512" xmlns="http://www.w3.org/2000/svg"><g id="Layer_3" data-name="Layer 3"><path d="m127.547 9.234a1.75 1.75 0 0 0 -1.3-.575h-58.388a1.75 1.75 0 0 0 -1.741 1.922l6.639 67.106a1.75 1.75 0 0 0 1.743 1.579h1.25v17.982a45.594 45.594 0 0 1 -.412 6.056 1.759 1.759 0 0 0 -.007.405l.088.893a1.749 1.749 0 0 0 1.741 1.578h39.789a1.75 1.75 0 0 0 1.741-1.578l9.3-94.021a1.747 1.747 0 0 0 -.443-1.347z" fill="#4db6ac"/><path d="m127.547 9.234a1.75 1.75 0 0 0 -1.3-.575h-6.09a1.75 1.75 0 0 1 1.741 1.922l-9.298 94.019a1.75 1.75 0 0 1 -1.741 1.578h6.09a1.75 1.75 0 0 0 1.741-1.578l9.3-94.021a1.747 1.747 0 0 0 -.443-1.345z" fill="#26a69a"/><path d="m118.53 104.43v17.78a5.757 5.757 0 0 1 -5.75 5.75h-31.62a5.757 5.757 0 0 1 -5.75-5.75v-17.78a1.746 1.746 0 0 1 1.75-1.75h39.62a1.752 1.752 0 0 1 1.75 1.75z" fill="#495766"/><path d="m116.78 102.68h-5.22a1.752 1.752 0 0 1 1.75 1.75v17.78a5.757 5.757 0 0 1 -5.75 5.75h5.22a5.757 5.757 0 0 0 5.75-5.75v-17.78a1.752 1.752 0 0 0 -1.75-1.75z" fill="#303c47"/><rect fill="#ba68c8" height="12.196" rx="1.75" width="61.891" x="66.109" y="-.037"/><path d="m126.25-.037h-2.917l-1.25 12.2h4.167a1.75 1.75 0 0 0 1.75-1.75v-8.7a1.75 1.75 0 0 0 -1.75-1.75z" fill="#ab47bc"/><path d="m75.41 109.55h43.12v3.5h-43.12z" fill="#303c47"/><path d="m97.055 30.92c-8.227 0-14.67 11.641-14.67 26.5s6.443 26.5 14.67 26.5 14.67-11.641 14.67-26.5-6.444-26.5-14.67-26.5z" fill="#ffecb3"/><path d="m97.055 30.92a8.655 8.655 0 0 0 -1.567.145c7.463 1.372 13.1 12.454 13.1 26.355s-5.64 24.984-13.1 26.355a8.655 8.655 0 0 0 1.567.145c8.227 0 14.67-11.641 14.67-26.5s-6.444-26.5-14.67-26.5z" fill="#ffe082"/><path d="m69.19 60.81v3.44a1.752 1.752 0 0 1 -1.75 1.75h-55.63a1.752 1.752 0 0 1 -1.75-1.75v-3.44a8.78 8.78 0 0 1 7.13-8.6c.01-.05.01-.1.02-.15a12.2 12.2 0 0 1 12.07-10.44 17.865 17.865 0 0 0 14.1-6.96l5.2-6.79a1.75 1.75 0 0 1 2.8.04l4.33 5.97a33.789 33.789 0 0 1 6.41 18.18.859.859 0 0 1 .01.16 8.787 8.787 0 0 1 7.06 8.59z" fill="#ffecb3"/><path d="m67.43 55.56a8.691 8.691 0 0 0 -5.3-3.34.859.859 0 0 0 -.01-.16 33.789 33.789 0 0 0 -6.41-18.18l-4.33-5.97a1.75 1.75 0 0 0 -2.8-.04l-1.242 1.622 3.182 4.388a33.789 33.789 0 0 1 6.41 18.18.859.859 0 0 1 .01.16 8.787 8.787 0 0 1 7.06 8.59v3.44a1.752 1.752 0 0 1 -1.75 1.75h5.19a1.752 1.752 0 0 0 1.75-1.75v-3.44a8.64 8.64 0 0 0 -1.76-5.25z" fill="#ffe082"/><path d="m35.42 53.81a1.752 1.752 0 0 1 -1.75 1.75h-21.85a8.75 8.75 0 0 1 5.37-3.35c.01-.05.01-.1.02-.15h16.46a1.752 1.752 0 0 1 1.75 1.75z" fill="#ffe082"/><path d="m67.43 55.56h-22.18a1.75 1.75 0 0 1 0-3.5h16.87a.859.859 0 0 1 .01.16 8.691 8.691 0 0 1 5.3 3.34z" fill="#ffe082"/><path d="m73.29 64.25v13.27a1.752 1.752 0 0 1 -1.75 1.75h-63.83a1.752 1.752 0 0 1 -1.75-1.75v-13.27a1.752 1.752 0 0 1 1.75-1.75h63.83a1.752 1.752 0 0 1 1.75 1.75z" fill="#ba68c8"/><g fill="#ab47bc"><path d="m71.54 62.5h-4.96a1.752 1.752 0 0 1 1.75 1.75v13.27a1.752 1.752 0 0 1 -1.75 1.75h4.96a1.752 1.752 0 0 0 1.75-1.75v-13.27a1.752 1.752 0 0 0 -1.75-1.75z"/><path d="m73.29 69.13v3.5h-24.79a1.75 1.75 0 0 1 0-3.5z"/><path d="m32.5 70.88a1.746 1.746 0 0 1 -1.75 1.75h-24.79v-3.5h24.79a1.752 1.752 0 0 1 1.75 1.75z"/></g><path d="m77.5 75.766h-75.75a1.75 1.75 0 0 0 -1.75 1.75v19.732a49.142 49.142 0 0 0 10.371 30.116 1.749 1.749 0 0 0 1.379.673h55.75a1.749 1.749 0 0 0 1.379-.673 49.142 49.142 0 0 0 10.371-30.116v-19.732a1.75 1.75 0 0 0 -1.75-1.75z" fill="#fec13b"/><path d="m77.5 75.766h-4.96a1.75 1.75 0 0 1 1.75 1.75v19.732a49.142 49.142 0 0 1 -10.371 30.116 1.749 1.749 0 0 1 -1.379.673h4.96a1.749 1.749 0 0 0 1.379-.673 49.142 49.142 0 0 0 10.371-30.116v-19.732a1.75 1.75 0 0 0 -1.75-1.75z" fill="#ffa000"/><path d="m54.973 108.619a9.719 9.719 0 0 0 -5.491-4.41 1.744 1.744 0 0 0 -1.709.376 12.082 12.082 0 0 1 -16.294 0 1.742 1.742 0 0 0 -1.709-.376 9.717 9.717 0 0 0 -5.492 4.41 1.749 1.749 0 0 0 0 1.752 9.724 9.724 0 0 0 15.348 1.972 9.724 9.724 0 0 0 15.348-1.972 1.749 1.749 0 0 0 -.001-1.752z" fill="#4db6ac"/><path d="m53.458 93.678a15.433 15.433 0 0 0 -9.48 3.22 1.747 1.747 0 0 0 -.666 1.64 9.549 9.549 0 0 1 .1 1.367 9.355 9.355 0 0 1 -3.788 7.488 9.355 9.355 0 0 1 -3.787-7.493 9.549 9.549 0 0 1 .1-1.367 1.747 1.747 0 0 0 -.666-1.64 15.433 15.433 0 0 0 -9.48-3.22 1.75 1.75 0 0 0 -1.75 1.75v.234a15.583 15.583 0 1 0 31.166 0v-.234a1.75 1.75 0 0 0 -1.749-1.745z" fill="#ba68c8"/><path d="m40.5 88.8a1.748 1.748 0 0 0 -1.754 0 12.824 12.824 0 0 0 0 22.212 1.748 1.748 0 0 0 1.752 0 12.824 12.824 0 0 0 0-22.212z" fill="#ba68c8"/><path d="m43.978 96.9a1.747 1.747 0 0 0 -.666 1.64 9.549 9.549 0 0 1 .1 1.367 9.355 9.355 0 0 1 -3.788 7.488 9.355 9.355 0 0 1 -3.787-7.495 9.549 9.549 0 0 1 .1-1.367 1.747 1.747 0 0 0 -.666-1.64 15.4 15.4 0 0 0 -7.721-3.11 17.886 17.886 0 0 0 8.685 12.733 6.75 6.75 0 0 0 6.769 0 17.893 17.893 0 0 0 8.696-12.729 15.4 15.4 0 0 0 -7.722 3.113z" fill="#ab47bc"/><path d="m40.5 88.8a1.748 1.748 0 0 0 -1.754 0 12.824 12.824 0 0 0 0 22.212 1.748 1.748 0 0 0 1.752 0 12.824 12.824 0 0 0 0-22.212z" fill="#ba68c8"/><path d="m82.373 57.42c0 14.859 6.443 26.5 14.67 26.5s14.67-11.641 14.67-26.5-6.443-26.5-14.67-26.5-14.67 11.641-14.67 26.5zm25.84 0c0 12.468-5.115 23-11.17 23s-11.17-10.532-11.17-23 5.115-23 11.17-23 11.17 10.532 11.17 23z"/><path d="m31.125 126.287a1.75 1.75 0 0 0 -1.75-1.75h-1.83a1.75 1.75 0 0 0 0 3.5h1.83a1.75 1.75 0 0 0 1.75-1.75z"/><path d="m11.738 128.037h9.762a1.75 1.75 0 0 0 0-3.5h-8.9a45.632 45.632 0 0 1 -9.112-27.289v-17.982h72.25v17.982c0 .914-.037 1.842-.1 2.772-.008.133-.015.267-.025.4q-.1 1.362-.277 2.732a45.672 45.672 0 0 1 -8.716 21.385h-31.2a1.75 1.75 0 0 0 0 3.5h32.068a1.749 1.749 0 0 0 1.379-.673 48.821 48.821 0 0 0 6.533-11.176v6.025a5.756 5.756 0 0 0 5.75 5.75h31.616a5.756 5.756 0 0 0 5.75-5.75v-17.036a1.737 1.737 0 0 0 .163-.575l3.975-40.177a1.75 1.75 0 0 0 -3.482-.344l-3.818 38.6h-36.424c.013-.116.017-.231.029-.347q.106-1.006.171-2.016c.013-.2.027-.4.038-.594.042-.823.071-1.648.071-2.474v-19.734a1.75 1.75 0 0 0 -1.75-1.75h-1.418l-6.292-63.607h54.527l-4.1 41.479a1.75 1.75 0 0 0 3.482.344l4.294-43.4c0-.027 0-.053 0-.08s.009-.06.009-.092v-8.7a1.75 1.75 0 0 0 -1.75-1.75h-58.393a1.75 1.75 0 0 0 -1.75 1.75v8.7c0 .031.008.061.009.092s0 .053 0 .08l5.136 51.918h-2.067v-1.69a8.765 8.765 0 0 0 -7.058-8.586 33.745 33.745 0 0 0 -6.418-18.341l-4.325-5.972a1.749 1.749 0 0 0 -1.394-.724 1.682 1.682 0 0 0 -1.412.686l-5.2 6.784a17.874 17.874 0 0 1 -14.1 6.96 12.211 12.211 0 0 0 -12.093 10.594 8.765 8.765 0 0 0 -7.125 8.6v1.689h-2.351a1.75 1.75 0 0 0 -1.75 1.75v11.516h-4.212a1.75 1.75 0 0 0 -1.75 1.75v19.732a49.136 49.136 0 0 0 10.371 30.116 1.749 1.749 0 0 0 1.379.673zm57.862-124.574h54.891v5.2h-54.891zm43.167 121h-31.619a2.253 2.253 0 0 1 -2.25-2.25v-9.166h36.116v9.166a2.253 2.253 0 0 1 -2.249 2.25zm2.25-18.283v3.367h-36.117v-3.367zm-101.466-45.37a5.261 5.261 0 0 1 5.271-5.25h14.832a1.75 1.75 0 1 0 0-3.5h-12.906a8.708 8.708 0 0 1 8.516-6.942 21.393 21.393 0 0 0 16.88-8.331l3.771-4.92 2.947 4.069a30.258 30.258 0 0 1 5.724 16.124h-3.378a1.75 1.75 0 0 0 0 3.5h4.863c.057 0 .111-.011.167-.017s.109.017.167.017h.021a5.256 5.256 0 0 1 5.25 5.25v1.69h-52.125zm-4.1 11.824h21.287a1.75 1.75 0 0 0 0-3.5h-21.292v-3.134h60.333v3.131h-21.291a1.75 1.75 0 0 0 0 3.5h21.291v3.132h-60.333z"/><path d="m55.2 95.428a1.75 1.75 0 0 0 -1.75-1.75 15.437 15.437 0 0 0 -7.334 1.831 12.88 12.88 0 0 0 -5.626-6.709 1.748 1.748 0 0 0 -1.754 0 12.876 12.876 0 0 0 -5.623 6.71 15.437 15.437 0 0 0 -7.334-1.831 1.75 1.75 0 0 0 -1.75 1.75v.234a15.494 15.494 0 0 0 3.377 9.658 9.723 9.723 0 0 0 -3.142 3.3 1.751 1.751 0 0 0 0 1.753 9.725 9.725 0 0 0 15.349 1.971 9.724 9.724 0 0 0 15.348-1.972 1.749 1.749 0 0 0 0-1.752 9.723 9.723 0 0 0 -3.141-3.3 15.5 15.5 0 0 0 3.38-9.659zm-8.319 3.693a11.911 11.911 0 0 1 4.706-1.8 12.2 12.2 0 0 1 -6.41 9.064c.189-.1.346-.7.43-.881a15.224 15.224 0 0 0 .68-1.706 12.831 12.831 0 0 0 .59-4.677zm-7.268-6.721a9.322 9.322 0 0 1 0 14.989 9.321 9.321 0 0 1 0-14.989zm-7.263 6.721a12.711 12.711 0 0 0 .577 4.645 12.421 12.421 0 0 0 .742 1.82 8.045 8.045 0 0 1 .372.79 12.2 12.2 0 0 1 -6.4-9.057 11.921 11.921 0 0 1 4.709 1.802zm.347 12.618a6.262 6.262 0 0 1 -4.789-2.245 6.226 6.226 0 0 1 2.045-1.6 15.785 15.785 0 0 0 6.007 2.923 6.235 6.235 0 0 1 -3.26.922zm13.833 0a6.226 6.226 0 0 1 -3.263-.927 15.781 15.781 0 0 0 6.007-2.923 6.216 6.216 0 0 1 2.045 1.6 6.259 6.259 0 0 1 -4.79 2.25z"/><path d="m48.75 52.06h-3.512a1.75 1.75 0 0 0 0 3.5h3.512a1.75 1.75 0 0 0 0-3.5z"/></g></svg>