<svg id="Layer_1" enable-background="new 0 0 511.999 511.999" height="512" viewBox="0 0 511.999 511.999" width="512" xmlns="http://www.w3.org/2000/svg"><path id="XMLID_1287_" d="m444.779 138.583v-72.271c0-5.568-4.514-10.081-10.081-10.081h-357.396c-5.568 0-10.081 4.514-10.081 10.081v72.271z" fill="#fb946d"/><path id="XMLID_1288_" d="m444.78 66.309v72.27h-29.83v-72.27c0-5.57-4.51-10.08-10.08-10.08h29.83c5.57 0 10.08 4.51 10.08 10.08z" fill="#fc7d4b"/><path id="XMLID_1289_" d="m494.419 455.769h-197.659c-4.87 0-9.04-3.47-9.92-8.26l-30.84-167.5-30.84 167.5c-.88 4.79-5.05 8.26-9.92 8.26h-197.66c-6.29 0-11.05-5.71-9.91-11.91l59.55-323.42h377.56l59.55 323.42c1.14 6.2-3.62 11.91-9.911 11.91z" fill="#79cdd4"/><path id="XMLID_1290_" d="m494.419 455.769h-29.83c6.29 0 11.05-5.71 9.91-11.91l-59.55-323.42h29.83l59.55 323.42c1.141 6.2-3.619 11.91-9.91 11.91z" fill="#35bcc7"/><path id="XMLID_1291_" d="m251.75 303.089-12.69 68.91h-218.16l12.69-68.91z" fill="#fddd45"/><path id="XMLID_1292_" d="m491.1 371.999h-218.16l-12.69-68.91h218.159z" fill="#fddd45"/><path id="XMLID_1293_" d="m491.1 371.999h-29.83l-12.69-68.91h29.829z" fill="#f8c52d"/><path id="XMLID_1294_" d="m244.54 342.239-13.99 76-5.39 29.27c-.88 4.79-5.05 8.26-9.92 8.26h-197.66c-6.29 0-11.05-5.71-9.91-11.91l4.05-21.99 14.66-79.63z" fill="#a3e440"/><path id="XMLID_1296_" d="m230.55 418.239-5.39 29.27c-.88 4.79-5.05 8.26-9.92 8.26h-197.66c-6.29 0-11.05-5.71-9.91-11.91l4.05-21.99c1.6.11 3.32.17 5.18.17 24.03 0 24.03-9.67 48.05-9.67 24.03 0 24.03 9.67 48.06 9.67s24.03-9.67 48.06-9.67 24.03 9.67 48.06 9.67c10.28 0 16.17-1.77 21.42-3.8z" fill="#fb946d"/><path id="XMLID_1297_" d="m494.419 455.769h-197.659c-4.87 0-9.04-3.47-9.92-8.26l-5.39-29.27-13.99-76h218.16l18.71 101.62c1.14 6.2-3.62 11.91-9.911 11.91z" fill="#a3e440"/><path id="XMLID_1298_" d="m494.419 455.769h-29.83c6.29 0 11.05-5.71 9.91-11.91l-18.71-101.62h29.83l18.71 101.62c1.141 6.2-3.619 11.91-9.91 11.91z" fill="#99d53b"/><path id="XMLID_1299_" d="m494.419 455.769h-197.659c-4.87 0-9.04-3.47-9.92-8.26l-5.39-29.27c5.25 2.03 11.14 3.8 21.42 3.8 24.03 0 24.03-9.67 48.06-9.67s24.03 9.67 48.06 9.67 24.03-9.67 48.06-9.67c10.95 0 16.9 2.01 22.42 4.19 6.59 2.62 12.55 5.48 25.63 5.48 1.86 0 3.58-.06 5.18-.17l4.05 21.99c1.14 6.2-3.62 11.91-9.911 11.91z" fill="#fb946d"/><path id="XMLID_1300_" d="m494.419 455.769h-29.83c6.29 0 11.05-5.71 9.91-11.91l-5.03-27.3c6.59 2.62 12.55 5.48 25.63 5.48 1.86 0 3.58-.06 5.18-.17l4.05 21.99c1.141 6.2-3.619 11.91-9.91 11.91z" fill="#fc7d4b"/><path id="XMLID_1302_" d="m511.706 442.504-48.18-261.67c-.749-4.075-4.667-6.767-8.734-6.018-4.073.75-6.768 4.661-6.018 8.734l20.629 112.04h-202.909l-2.995-16.265v-45.895h19.761c6.893 0 12.5-5.607 12.5-12.5v-92.994h142.773l4.508 24.48c.666 3.614 3.819 6.143 7.367 6.143.451 0 .908-.041 1.367-.125 4.073-.75 6.768-4.661 6.018-8.734l-5.515-29.949v-53.44c0-9.694-7.887-17.582-17.581-17.582h-357.395c-9.694 0-17.582 7.887-17.582 17.582v8.093c0 4.142 3.358 7.5 7.5 7.5s7.5-3.358 7.5-7.5v-8.093c0-1.423 1.158-2.582 2.582-2.582h357.396c1.423 0 2.581 1.158 2.581 2.582v46.624h-241.685c-4.142 0-7.5 3.358-7.5 7.5s3.358 7.5 7.5 7.5h52.906v151.388l-2.995 16.265h-202.909l30.869-167.653h90.273c4.142 0 7.5-3.358 7.5-7.5s-3.358-7.5-7.5-7.5h-89.018v-6.676c0-4.142-3.358-7.5-7.5-7.5s-7.5 3.358-7.5 7.5v13.491l-59.427 322.754c-.948 5.149.43 10.41 3.78 14.433 3.351 4.024 8.275 6.332 13.511 6.332h197.659c8.482 0 15.754-6.055 17.291-14.398l23.466-127.444 23.466 127.444c1.536 8.342 8.809 14.397 17.291 14.397h197.659c5.235 0 10.16-2.308 13.51-6.331s4.728-9.284 3.78-14.433zm-235.241-92.764h202.909l11.913 64.703c-8.034-.422-12.431-2.19-17.417-4.196-6.262-2.521-13.358-5.377-26.82-5.377-13.467 0-20.565 2.856-26.829 5.377-5.725 2.304-10.668 4.293-21.23 4.293s-15.506-1.989-21.23-4.293c-6.264-2.52-13.362-5.377-26.83-5.377-13.467 0-20.565 2.856-26.829 5.377-5.725 2.304-10.668 4.293-21.23 4.293-6.763 0-11.241-.843-14.83-1.936zm195.7-39.151 4.447 24.15h-202.909l-4.447-24.15zm-191.405-182.653v90.494h-17.26v-90.494zm-38.017 182.653-4.447 24.15h-202.909l4.447-24.15zm-18.784 102.015c-3.589 1.093-8.068 1.936-14.83 1.936-10.563 0-15.506-1.989-21.23-4.292-6.263-2.521-13.362-5.377-26.83-5.377-13.467 0-20.566 2.857-26.83 5.377-5.724 2.304-10.667 4.293-21.23 4.293s-15.506-1.989-21.23-4.293c-6.263-2.52-13.362-5.377-26.83-5.377-13.461 0-20.558 2.856-26.82 5.376-4.987 2.007-9.384 3.775-17.418 4.197l11.914-64.703h202.909zm-8.716 35.664h-197.659c-1.053 0-1.695-.583-1.984-.93s-.746-1.084-.555-2.119l2.89-15.694c12.79-.145 19.698-2.91 25.796-5.364 5.722-2.303 10.663-4.292 21.219-4.292 10.563 0 15.506 1.989 21.23 4.292 6.263 2.521 13.362 5.377 26.83 5.377 13.467 0 20.566-2.857 26.83-5.377 5.724-2.304 10.667-4.293 21.23-4.293s15.506 1.989 21.23 4.293c6.263 2.52 13.362 5.377 26.83 5.377 4.625 0 8.503-.343 11.876-.896l-3.224 17.51c-.226 1.227-1.294 2.116-2.539 2.116zm281.156-.929c-.289.347-.932.929-1.983.929h-197.66c-1.246 0-2.313-.889-2.539-2.114l-3.224-17.51c3.373.552 7.252.896 11.876.896 13.468 0 20.566-2.857 26.83-5.377 5.724-2.303 10.667-4.292 21.229-4.292s15.506 1.989 21.23 4.293c6.264 2.52 13.362 5.377 26.83 5.377s20.566-2.857 26.83-5.377c5.724-2.303 10.667-4.292 21.229-4.292 10.557 0 15.498 1.989 21.22 4.292 6.097 2.454 13.005 5.22 25.795 5.364l2.89 15.694c.192 1.033-.264 1.77-.553 2.117z"/><path id="XMLID_1311_" d="m237.888 93.499c4.142 0 7.5-3.358 7.5-7.5s-3.358-7.5-7.5-7.5h-4.004c-4.142 0-7.5 3.358-7.5 7.5s3.358 7.5 7.5 7.5z"/><path id="XMLID_1312_" d="m278.115 93.499c4.143 0 7.5-3.358 7.5-7.5s-3.357-7.5-7.5-7.5h-4.004c-4.143 0-7.5 3.358-7.5 7.5s3.357 7.5 7.5 7.5z"/></svg>