<svg height="496pt" viewBox="0 0 496 496" width="496pt" xmlns="http://www.w3.org/2000/svg"><path d="m88 8h400v96h-400zm0 0" fill="#bc8f6f"/><path d="m88 8h352v96h-352zm0 0" fill="#cb9e78"/><g fill="#699ce6"><path d="m152 56c0 8.835938-7.164062 16-16 16s-16-7.164062-16-16 7.164062-16 16-16 16 7.164062 16 16zm0 0"/><path d="m216 56c0 8.835938-7.164062 16-16 16s-16-7.164062-16-16 7.164062-16 16-16 16 7.164062 16 16zm0 0"/><path d="m280 56c0 8.835938-7.164062 16-16 16s-16-7.164062-16-16 7.164062-16 16-16 16 7.164062 16 16zm0 0"/></g><path d="m88 104h400v384h-400zm0 0" fill="#999"/><path d="m88 104h352v384h-352zm0 0" fill="#bab8b9"/><path d="m432 280c0 79.527344-64.472656 144-144 144s-144-64.472656-144-144 64.472656-144 144-144 144 64.472656 144 144zm0 0" fill="#656665"/><path d="m400 280c0 61.855469-50.144531 112-112 112s-112-50.144531-112-112 50.144531-112 112-112 112 50.144531 112 112zm0 0" fill="#d9d7d8"/><path d="m384 296c-5.121094 0-10.03125-2.03125-13.65625-5.65625l-4.6875-4.6875c-3.625-3.625-8.535156-5.65625-13.65625-5.65625s-10.03125 2.03125-13.65625 5.65625l-4.6875 4.6875c-3.625 3.625-8.535156 5.65625-13.65625 5.65625s-10.03125-2.03125-13.65625-5.65625l-4.6875-4.6875c-3.625-3.625-8.535156-5.65625-13.65625-5.65625s-10.03125 2.03125-13.65625 5.65625l-4.6875 4.6875c-3.625 3.625-8.535156 5.65625-13.65625 5.65625s-10.03125-2.03125-13.65625-5.65625l-4.6875-4.6875c-3.625-3.625-8.535156-5.65625-13.65625-5.65625s-10.03125 2.03125-13.65625 5.65625l-4.6875 4.6875c-3.625 3.625-8.535156 5.65625-13.65625 5.65625h-14.726562c7.78125 54.257812 54.320312 96 110.726562 96s102.945312-41.742188 110.726562-96zm0 0" fill="#85b6cf"/><path d="m184 488h-112c-26.511719 0-48-21.488281-48-48v-32h208v32c0 26.511719-21.488281 48-48 48zm0 0" fill="#599072"/><path d="m208 440v-32h-184v32c0 26.511719 21.488281 48 48 48h88c26.511719 0 48-21.488281 48-48zm0 0" fill="#70b48f"/><path d="m8 376h240v32h-240zm0 0" fill="#656665"/><path d="m8 376h200v32h-200zm0 0" fill="#999"/><path d="m232 376c0-17.671875-14.328125-32-32-32-9.863281 0-18.574219 4.558594-24.449219 11.574219-2.078125-11.132813-11.816406-19.574219-23.550781-19.574219-1.441406 0-2.839844.183594-4.207031.425781-5.480469-9.753906-15.808594-16.425781-27.792969-16.425781-7.886719 0-15.023438 2.96875-20.601562 7.703125-5.582032-9.367187-15.703126-15.703125-27.398438-15.703125-17.671875 0-32 14.328125-32 32 0 1.441406.238281 2.816406.425781 4.207031-9.753906 5.480469-16.425781 15.808594-16.425781 27.792969" fill="#94cce7"/><path d="m248 416h-240c-4.425781 0-8-3.585938-8-8v-32c0-4.414062 3.574219-8 8-8h240c4.425781 0 8 3.585938 8 8v32c0 4.414062-3.574219 8-8 8zm-232-16h224v-16h-224zm0 0"/><path d="m184 496h-112c-30.871094 0-56-25.121094-56-56v-32c0-4.414062 3.574219-8 8-8h208c4.425781 0 8 3.585938 8 8v32c0 30.878906-25.128906 56-56 56zm-152-80v24c0 22.054688 17.945312 40 40 40h112c22.054688 0 40-17.945312 40-40v-24zm0 0"/><path d="m488 496h-312v-16h304v-464h-384v304h-16v-312c0-4.414062 3.574219-8 8-8h400c4.425781 0 8 3.585938 8 8v480c0 4.414062-3.574219 8-8 8zm0 0"/><path d="m88 96h400v16h-400zm0 0"/><path d="m136 80c-13.230469 0-24-10.769531-24-24s10.769531-24 24-24 24 10.769531 24 24-10.769531 24-24 24zm0-32c-4.414062 0-8 3.59375-8 8s3.585938 8 8 8 8-3.59375 8-8-3.585938-8-8-8zm0 0"/><path d="m200 80c-13.230469 0-24-10.769531-24-24s10.769531-24 24-24 24 10.769531 24 24-10.769531 24-24 24zm0-32c-4.414062 0-8 3.59375-8 8s3.585938 8 8 8 8-3.59375 8-8-3.585938-8-8-8zm0 0"/><path d="m264 80c-13.230469 0-24-10.769531-24-24s10.769531-24 24-24 24 10.769531 24 24-10.769531 24-24 24zm0-32c-4.414062 0-8 3.59375-8 8s3.585938 8 8 8 8-3.59375 8-8-3.585938-8-8-8zm0 0"/><path d="m448 64h16v16h-16zm0 0"/><path d="m448 32h16v16h-16zm0 0"/><path d="m416 64h16v16h-16zm0 0"/><path d="m416 32h16v16h-16zm0 0"/><path d="m384 64h16v16h-16zm0 0"/><path d="m384 32h16v16h-16zm0 0"/><path d="m352 64h16v16h-16zm0 0"/><path d="m352 32h16v16h-16zm0 0"/><path d="m288 432c-20.496094 0-40.382812-4.007812-59.113281-11.921875l6.21875-14.742187c16.757812 7.078124 34.550781 10.664062 52.894531 10.664062 74.992188 0 136-61.007812 136-136s-61.007812-136-136-136-136 61.007812-136 136c0 18.441406 3.625 36.320312 10.769531 53.144531l-14.722656 6.253907c-7.992187-18.804688-12.046875-38.789063-12.046875-59.398438 0-83.816406 68.183594-152 152-152s152 68.183594 152 152-68.183594 152-152 152zm0 0"/><path d="m288 400c-14.777344 0-29.183594-2.65625-42.855469-7.878906l5.71875-14.945313c11.832031 4.527344 24.328125 6.824219 37.136719 6.824219 57.34375 0 104-46.65625 104-104s-46.65625-104-104-104-104 46.65625-104 104c0 21.488281 6.496094 42.113281 18.785156 59.640625l-13.097656 9.183594c-14.183594-20.230469-21.6875-44.03125-21.6875-68.824219 0-66.167969 53.832031-120 120-120s120 53.832031 120 120-53.832031 120-120 120zm0 0"/><path d="m400 304h-16c-7.289062 0-14.152344-2.839844-19.3125-8l-4.6875-4.6875c-4.28125-4.273438-11.71875-4.28125-16 0l-4.6875 4.6875c-10.328125 10.320312-28.296875 10.320312-38.625 0l-4.6875-4.6875c-4.28125-4.273438-11.71875-4.28125-16 0l-4.6875 4.6875c-10.328125 10.320312-28.296875 10.320312-38.625 0l-4.6875-4.6875c-4.28125-4.273438-11.71875-4.28125-16 0l-4.6875 4.6875c-5.167969 5.160156-12.023438 8-19.3125 8h-16v-16h16c3.023438 0 5.855469-1.175781 8-3.320312l4.6875-4.679688c10.328125-10.320312 28.296875-10.320312 38.625 0l4.6875 4.6875c4.28125 4.273438 11.71875 4.28125 16 0l4.6875-4.6875c10.328125-10.320312 28.296875-10.320312 38.625 0l4.6875 4.6875c4.28125 4.273438 11.71875 4.28125 16 0l4.6875-4.6875c10.328125-10.320312 28.296875-10.320312 38.625 0l4.6875 4.6875c2.144531 2.136719 4.976562 3.3125 8 3.3125h16zm0 0"/><path d="m240 376h-16c0-13.230469-10.769531-24-24-24-7.007812 0-13.679688 3.175781-18.304688 8.703125-1.992187 2.375-5.152343 3.410156-8.167968 2.609375-3-.785156-5.269532-3.222656-5.839844-6.273438-1.582031-8.496093-10.144531-14.230468-18.496094-12.742187-3.328125.597656-6.71875-.992187-8.382812-3.960937-4.273438-7.609376-12.25-12.335938-20.808594-12.335938-7.105469 0-12.304688 3.152344-15.425781 5.800781-1.796875 1.527344-4.167969 2.191407-6.496094 1.792969-2.316406-.386719-4.351563-1.777344-5.550781-3.792969-4.40625-7.394531-12.078125-11.800781-20.527344-11.800781-13.230469 0-24 10.769531-24 24 0 .777344.128906 1.511719.230469 2.257812l.128906.925782c.417969 3.230468-1.167969 6.402344-4.015625 8-7.617188 4.28125-12.34375 12.257812-12.34375 20.816406h-16c0-12.542969 6.015625-24.320312 16-31.832031 0-.046875 0-.113281 0-.167969 0-22.054688 17.945312-40 40-40 11.289062 0 21.734375 4.671875 29.214844 12.816406 5.785156-3.144531 12.25-4.816406 18.785156-4.816406 12.550781 0 24.320312 6.015625 31.824219 16h.175781c10.976562 0 20.847656 5.59375 26.632812 14.304688 6.34375-4.082032 13.726563-6.304688 21.367188-6.304688 22.054688 0 40 17.945312 40 40zm0 0"/></svg>