<svg height="512pt" viewBox="-32 0 512 512" width="512pt" xmlns="http://www.w3.org/2000/svg"><path d="m152.832031 66.167969c0 32.398437-26.265625 58.667969-58.667969 58.667969-32.402343 0-58.667968-26.269532-58.667968-58.667969 0-32.402344 26.265625-58.667969 58.667968-58.667969 32.402344 0 58.667969 26.265625 58.667969 58.667969zm0 0" fill="#b24e2f"/><path d="m94.164062 94.835938c-15.808593 0-28.667968-12.863282-28.667968-28.667969 0-15.808594 12.863281-28.667969 28.667968-28.667969 15.808594 0 28.664063 12.859375 28.664063 28.667969 0 15.804687-12.859375 28.667969-28.664063 28.667969zm0 0" fill="#ffa93f"/><path d="m411.671875 66.167969c0 32.398437-26.265625 58.667969-58.667969 58.667969s-58.667968-26.269532-58.667968-58.667969c0-32.402344 26.265624-58.667969 58.667968-58.667969s58.667969 26.265625 58.667969 58.667969zm0 0" fill="#dd6642"/><path d="m353.003906 94.835938c-15.808594 0-28.667968-12.863282-28.667968-28.667969 0-15.808594 12.859374-28.667969 28.667968-28.667969s28.667969 12.859375 28.667969 28.667969c0 15.804687-12.859375 28.667969-28.667969 28.667969zm0 0" fill="#ffbe73"/><path d="m98.003906 220.253906s-57.871094 38.855469-82.90625 103.558594c-8.222656 21.25-4.238281 45.378906 10.585938 62.679688 12.914062 15.070312 34.085937 29.0625 68.027344 28.253906-.871094-2.582032 36.992187-174.699219 36.992187-174.699219zm0 0" fill="#a34325"/><path d="m349.164062 220.253906s57.871094 38.855469 82.90625 103.558594c8.222657 21.25 4.242188 45.378906-10.582031 62.679688-12.914062 15.070312-34.089843 29.0625-68.027343 28.253906.867187-2.582032-36.996094-174.699219-36.996094-174.699219zm0 0" fill="#b24e2f"/><path d="m376.824219 391.3125c0 93.882812-68.605469 113.1875-153.238281 113.1875-84.636719 0-153.242188-19.304688-153.242188-113.1875s68.609375-246.25 153.242188-246.25c84.628906 0 153.238281 152.367188 153.238281 246.25zm0 0" fill="#dd6642"/><path d="m245.960938 349.863281c26.296874-6.242187 38.375-16.308593 38.375-16.308593v-162.261719c-18.628907-16.324219-39.164063-26.230469-60.75-26.230469-84.632813 0-153.242188 152.367188-153.242188 246.25 0 83.78125 54.636719 108.167969 126.539062 112.449219 12.585938-36.628907 12.972657-69.933594 9.441407-95.742188-3.664063-26.746093 13.367187-51.925781 39.636719-58.15625zm0 0" fill="#cb5935"/><path d="m162.832031 260.152344c20.269531 0 54.230469 16.433594 54.230469 36.699218 0 20.269532-33.960938 36.703126-54.230469 36.703126s-21.882812-16.433594-21.882812-36.703126c0-20.265624 1.613281-36.699218 21.882812-36.699218zm0 0" fill="#00d2b4"/><path d="m284.335938 260.152344c-20.269532 0-54.230469 16.433594-54.230469 36.699218 0 20.269532 33.960937 36.703126 54.230469 36.703126 20.269531 0 21.882812-16.433594 21.882812-36.703126 0-20.265624-1.613281-36.699218-21.882812-36.699218zm0 0" fill="#00d2b4"/><path d="m256.164062 296.851562c0 17.996094-14.585937 32.582032-32.578124 32.582032-17.996094 0-32.582032-14.585938-32.582032-32.582032 0-17.992187 14.585938-32.578124 32.582032-32.578124 17.992187 0 32.578124 14.585937 32.578124 32.578124zm0 0" fill="#76e7d6"/><path d="m381.394531 165.3125c0 87.15625-70.652343 117.308594-157.808593 117.308594-87.160157 0-157.8125-30.152344-157.8125-117.308594 0-87.160156 70.65625-157.8125 157.8125-157.8125 87.152343 0 157.808593 70.652344 157.808593 157.8125zm0 0" fill="#e7896e"/><path d="m290.136719 220.253906c-181.40625-42.820312-123.039063-202.34375-123.035157-202.34375-59.257812 22.722656-101.328124 80.148438-101.328124 147.402344 0 87.15625 70.652343 117.308594 157.8125 117.308594 9.703124 0 19.195312-.371094 28.417968-1.15625 29.171875-25.539063 37.832032-60.878906 38.132813-61.210938zm0 0" fill="#dd6642"/><path d="m304.652344 184.554688c0-34.53125-36.296875-62.519532-81.066406-62.519532-44.773438 0-81.070313 27.988282-81.070313 62.519532 0 34.527343 36.296875 62.515624 81.070313 62.515624 44.769531 0 81.066406-27.988281 81.066406-62.515624zm0 0" fill="#ffd4a3"/><path d="m258.621094 174.246094c0-14.039063-15.6875-25.417969-35.035156-25.417969-19.351563 0-35.039063 11.378906-35.039063 25.417969 0 14.039062 15.6875 25.421875 35.039063 25.421875 19.347656 0 35.035156-11.382813 35.035156-25.421875zm0 0" fill="#516980"/><path d="m150.511719 431.222656c0-40.46875-32.011719-73.273437-71.503907-73.273437-39.492187 0-71.507812 32.804687-71.507812 73.273437s32.015625 73.277344 71.507812 73.277344c39.492188 0 71.503907-32.808594 71.503907-73.277344zm0 0" fill="#e7896e"/><path d="m439.667969 431.222656c0-40.46875-32.015625-73.273437-71.507813-73.273437-39.492187 0-71.503906 32.804687-71.503906 73.273437s32.011719 73.277344 71.503906 73.277344c39.492188 0 71.507813-32.808594 71.507813-73.277344zm0 0" fill="#e7896e"/><path d="m119.707031 431.222656c0 22.480469-18.222656 40.703125-40.699219 40.703125-22.480468 0-40.703124-18.222656-40.703124-40.703125 0-22.476562 18.222656-40.699218 40.703124-40.699218 22.476563 0 40.699219 18.222656 40.699219 40.699218zm0 0" fill="#ffbe73"/><path d="m408.863281 431.222656c0 22.480469-18.222656 40.703125-40.703125 40.703125-22.476562 0-40.699218-18.222656-40.699218-40.703125 0-22.476562 18.222656-40.699218 40.699218-40.699218 22.480469 0 40.703125 18.222656 40.703125 40.699218zm0 0" fill="#ffbe73"/><path d="m316.464844 142.285156c4.140625 0 7.5-3.359375 7.5-7.5v-12.453125c0-4.140625-3.359375-7.5-7.5-7.5-4.144532 0-7.5 3.359375-7.5 7.5v12.453125c0 4.140625 3.355468 7.5 7.5 7.5zm0 0"/><path d="m130.703125 142.285156c4.144531 0 7.5-3.359375 7.5-7.5v-12.453125c0-4.140625-3.355469-7.5-7.5-7.5-4.140625 0-7.5 3.359375-7.5 7.5v12.453125c0 4.140625 3.359375 7.5 7.5 7.5zm0 0"/><path d="m150.71875 224.449219c2.730469 3.117187 7.46875 3.429687 10.585938.699219 3.113281-2.726563 3.425781-7.46875.699218-10.582032-7.84375-8.953125-11.988281-19.332031-11.988281-30.011718 0-30.339844 33.003906-55.019532 73.566406-55.019532 40.566407 0 73.566407 24.679688 73.566407 55.019532 0 30.335937-33 55.015624-73.5625 55.015624-14.824219 0-29.121094-3.304687-41.347657-9.5625-3.6875-1.886718-8.207031-.425781-10.09375 3.261719s-.425781 8.207031 3.261719 10.089844c14.332031 7.335937 30.992188 11.210937 48.179688 11.210937 48.835937 0 88.566406-31.410156 88.566406-70.019531 0-38.605469-39.730469-70.015625-88.566406-70.015625-48.839844 0-88.570313 31.410156-88.570313 70.019532 0 14.371093 5.429687 28.167968 15.703125 39.894531zm0 0"/><path d="m223.585938 207.167969c23.851562 0 42.535156-14.460938 42.535156-32.921875 0-18.457032-18.683594-32.917969-42.535156-32.917969-23.855469 0-42.539063 14.460937-42.539063 32.917969 0 18.460937 18.683594 32.921875 42.539063 32.921875zm0-50.839844c14.925781 0 27.535156 8.207031 27.535156 17.917969 0 9.714844-12.609375 17.921875-27.535156 17.921875-14.929688 0-27.539063-8.207031-27.539063-17.921875 0-9.710938 12.609375-17.917969 27.539063-17.917969zm0 0"/><path d="m432.445312 384.351562c12.140626-18.542968 14.738282-42.257812 6.621094-63.242187-16.550781-42.773437-46.902344-74.554687-66.472656-91.796875 10.832031-17.734375 16.300781-39.121094 16.300781-64 0-24.777344-5.488281-48.292969-15.296875-69.410156 9.648438-6.660156 15.574219-17.648438 15.574219-29.734375 0-19.945313-16.226563-36.167969-36.167969-36.167969-8.730468 0-16.921875 3.070312-23.390625 8.589844-3.890625-3.261719-7.9375-6.347656-12.125-9.25 9.476563-9.183594 22.039063-14.339844 35.515625-14.339844 28.214844 0 51.167969 22.953125 51.167969 51.164062 0 11.496094-3.722656 22.351563-10.761719 31.398438-2.542968 3.269531-1.957031 7.980469 1.3125 10.527344 1.367188 1.0625 6.601563 3.84375 10.523438-1.3125 8.980468-11.804688 13.925781-25.75 13.925781-40.609375 0-36.484375-29.683594-66.167969-66.167969-66.167969-18.6875 0-36.019531 7.660156-48.515625 21.195312-23.929687-13.484374-51.53125-21.195312-80.902343-21.195312-29.375 0-56.976563 7.710938-80.90625 21.195312-12.496094-13.535156-29.828126-21.195312-48.515626-21.195312-36.484374 0-66.167968 29.683594-66.167968 66.164062 0 24.875 13.667968 47.183594 35.324218 58.550782-3.292968 12.996094-5.046874 26.59375-5.046874 40.59375 0 24.878906 5.46875 46.265625 16.300781 64-19.570313 17.246094-49.921875 49.023437-66.472657 91.796875-8.117187 20.984375-5.515624 44.703125 6.621094 63.246093-9.253906 13.226563-14.722656 29.40625-14.722656 46.871094 0 44.542969 35.441406 80.777344 79.007812 80.777344 17.277344 0 33.269532-5.71875 46.289063-15.375 24.289063 10.472656 55.707031 15.375 98.289063 15.375 42.578124 0 73.996093-4.902344 98.285156-15.375 13.019531 9.65625 29.011718 15.375 46.289062 15.375 13.582032 0 26.980469-3.585938 38.746094-10.363281 3.589844-2.070313 4.824219-6.65625 2.753906-10.246094-2.066406-3.585937-6.652344-4.820313-10.242187-2.75-9.492188 5.46875-20.300781 8.359375-31.257813 8.359375-35.292968 0-64.003906-29.507812-64.003906-65.777344 0-36.269531 28.710938-65.773437 64.003906-65.773437 35.296875 0 64.007813 29.503906 64.007813 65.773437 0 14.457032-4.472657 28.171875-12.9375 39.664063-2.457031 3.332031-1.746094 8.027343 1.585937 10.484375 3.335938 2.457031 8.03125 1.746094 10.488282-1.589844 10.378906-14.085938 15.863281-30.875 15.863281-48.554688 0-17.46875-5.46875-33.648437-14.722657-46.875zm-58.273437-318.1875c0 6.417969-2.859375 12.304688-7.609375 16.253907-7.140625-12.269531-15.808594-23.539063-25.753906-33.546875 3.523437-2.5 7.742187-3.871094 12.195312-3.871094 11.671875 0 21.167969 9.496094 21.167969 21.164062zm-331.175781 0c0-28.210937 22.953125-51.164062 51.167968-51.164062 13.476563 0 26.039063 5.15625 35.515626 14.339844-4.1875 2.902344-8.234376 5.988281-12.125 9.25-6.46875-5.519532-14.664063-8.589844-23.390626-8.589844-19.941406 0-36.167968 16.222656-36.167968 36.164062 0 12.089844 5.925781 23.078126 15.578125 29.734376-2.136719 4.601562-4.070313 9.316406-5.785157 14.132812-15.277343-9.144531-24.792968-25.617188-24.792968-43.867188zm37.609375 16.253907c-4.75-3.949219-7.609375-9.835938-7.609375-16.253907 0-11.667968 9.496094-21.164062 21.167968-21.164062 4.453126 0 8.671876 1.371094 12.191407 3.871094-9.941407 10.007812-18.609375 21.277344-25.75 33.546875zm142.980469-67.417969c82.878906 0 150.308593 67.429688 150.308593 150.3125 0 38.097656-14.394531 66.710938-42.789062 85.035156-25.464844 16.4375-61.640625 24.773438-107.519531 24.773438-45.882813 0-82.058594-8.335938-107.523438-24.773438-28.394531-18.324218-42.789062-46.9375-42.789062-85.035156 0-82.882812 67.429687-150.3125 150.3125-150.3125zm60.75 311.054688c-7.878907 0-18.15625-2.964844-27.042969-7.566407 4.023437-6.246093 6.371093-13.667969 6.371093-21.636719 0-3.007812-.359374-6.003906-1.027343-8.925781 12.640625-1.511719 24.398437-3.808593 35.257812-6.871093.738281 4.886718 6.757813 45-13.558593 45zm-135.066407-45c10.851563 3.0625 22.601563 5.355468 35.230469 6.867187-.660156 2.902344-.996094 5.886719-.996094 8.929687 0 7.964844 2.347656 15.390626 6.371094 21.636719-8.886719 4.597657-19.164062 7.5625-27.042969 7.5625-20.316406.003907-14.296875-40.109375-13.5625-44.996093zm49.234375 15.796874c0-2.589843.394532-5.105468 1.152344-7.523437 7.691406.523437 15.664062.792969 23.929688.792969 8.261718 0 16.234374-.269532 23.921874-.792969.757813 2.425781 1.15625 4.964844 1.15625 7.523437 0 13.828126-11.25 25.082032-25.078124 25.082032-13.832032 0-25.082032-11.25-25.082032-25.082032zm-176.414062 29.667969c15.128906-39.101562 42.851562-68.542969 61.292968-84.972656 3.808594 4.523437 8.046876 8.757813 12.714844 12.6875-14.300781 31.214844-24.796875 65.40625-29.863281 97.285156-15.804687 2.636719-30.042969 10.089844-41.238281 20.828125-7.535156-13.890625-8.738282-30.753906-2.90625-45.828125zm-7.089844 104.703125c0-36.269531 28.710938-65.773437 64.007812-65.773437 35.292969 0 64.003907 29.503906 64.003907 65.773437 0 36.269532-28.710938 65.777344-64.003907 65.777344-35.296874 0-64.007812-29.507812-64.007812-65.777344zm274.15625 0c0 20.816406 7.742188 39.816406 20.4375 54.152344-21.519531 7.902344-49.234375 11.625-86.007812 11.625-36.777344 0-64.492188-3.722656-86.011719-11.625 12.695312-14.335938 20.4375-33.335938 20.4375-54.152344 0-43.652344-34.050781-79.304687-76.421875-80.707031 4.882812-28.644531 14.273437-59.089844 26.878906-87.226563 7.925781 5.0625 16.730469 9.410157 26.386719 13.046876-1.125 5.765624-12.929688 64.714843 27.976562 64.714843 11.429688 0 26-4.453125 37.808594-11.367187 6.503906 4.5625 14.414063 7.25 22.945313 7.25s16.4375-2.6875 22.945312-7.25c11.808594 6.914062 26.375 11.367187 37.804688 11.367187 41.609374 0 29.105468-58.949219 27.980468-64.714843 9.652344-3.636719 18.457032-7.984376 26.382813-13.046876 12.640625 28.191407 21.988281 58.523438 26.871093 87.226563-42.367187 1.40625-76.414062 37.058594-76.414062 80.707031zm91.78125-79.703125c-5.070312-31.953125-15.527344-66.003906-29.867188-97.289062 4.667969-3.925781 8.90625-8.160157 12.714844-12.683594 18.441406 16.429687 46.160156 45.875 61.289063 84.976563 5.835937 15.074218 4.632812 31.9375-2.90625 45.824218-11.191407-10.738281-25.425781-18.1875-41.230469-20.828125zm0 0"/><path d="m79.007812 383.023438c-26.582031 0-48.203124 21.621093-48.203124 48.203124 0 26.578126 21.625 48.199219 48.203124 48.199219 26.578126 0 48.199219-21.621093 48.199219-48.199219 0-26.582031-21.621093-48.203124-48.199219-48.203124zm0 81.402343c-18.308593 0-33.203124-14.894531-33.203124-33.203125s14.894531-33.203125 33.203124-33.203125c18.304688 0 33.199219 14.894531 33.199219 33.203125s-14.894531 33.203125-33.199219 33.203125zm0 0"/><path d="m368.160156 383.023438c-26.578125 0-48.199218 21.621093-48.199218 48.203124 0 26.578126 21.625 48.199219 48.199218 48.199219 26.582032 0 48.203125-21.621093 48.203125-48.199219 0-26.582031-21.621093-48.203124-48.203125-48.203124zm0 81.402343c-18.304687 0-33.199218-14.894531-33.199218-33.203125s14.894531-33.203125 33.199218-33.203125c18.308594 0 33.203125 14.894531 33.203125 33.203125s-14.894531 33.203125-33.203125 33.203125zm0 0"/></svg>