<svg height="512" viewBox="0 0 64 64" width="512" xmlns="http://www.w3.org/2000/svg"><path d="m61 11v41a4 4 0 0 1 -4 4h-46a4 4 0 0 1 -4-4v-41z" fill="#5aaae7"/><path d="m9.98 50.8-.42.42a1.889 1.889 0 0 1 -.56.39 2.007 2.007 0 0 1 -1.86-.08 1.752 1.752 0 0 0 .42-.31l1.42-1.41.71.7z" fill="#3d9ae2"/><path d="m14.99 31.78a2.437 2.437 0 0 0 -.77-.52 2.346 2.346 0 0 1 1-.22 2.5 2.5 0 0 1 1.77.74l1.02 1.01a3 3 0 0 0 -1.25.75z" fill="#3d9ae2"/><path d="m22.83 56h-2l-7.84-7.84 6.65-4.75a2.455 2.455 0 0 0 1.43.41l-6.08 4.34z" fill="#3d9ae2"/><path d="m24.77 43.09a2.484 2.484 0 0 1 -2.76.52 2.4 2.4 0 0 0 .76-.52 2.517 2.517 0 0 0 0-3.54l-1.77-1.76a3.006 3.006 0 0 0 0-4.25 2.94 2.94 0 0 0 -1.12-.7 2.984 2.984 0 0 1 3.12.7 3.006 3.006 0 0 1 0 4.25l1.77 1.76a2.517 2.517 0 0 1 0 3.54z" fill="#3d9ae2"/><path d="m61 7v4h-54v-4a4 4 0 0 1 4-4h46a4 4 0 0 1 4 4z" fill="#ff5023"/><rect fill="#ffde55" height="26" rx="1" width="26" x="30" y="16"/><path d="m46 29-6 3v-6z" fill="#ff5023"/><path d="m21 56.17-.17-.17-7.84-7.84-3.3 2.35 5.48 5.49 3 3a2.016 2.016 0 0 0 2.83 0 2 2 0 0 0 0-2.83z" fill="#cc7400"/><path d="m7 47.83v-.01l-.14-.13-2.12-2.13-1.42 1.42a2 2 0 0 0 0 2.83l1.42 1.41a1.992 1.992 0 0 0 2.26.39 1.889 1.889 0 0 0 .56-.39l1.42-1.41z" fill="#cc7400"/><path d="m11.626 34.223-4.626 6.477-2.48 3.47a1 1 0 0 0 .11 1.29l.11.1 4.95 4.95 3.3-2.35 7.289-5.213z" fill="#ee8700"/><path d="m22.77 39.55a2.5 2.5 0 0 1 -3.45 3.62l-7.87-7.86a2.5 2.5 0 1 1 3.54-3.53l1.77 1.76 4.24 4.25z" fill="#ff9811"/><path d="m21 33.54a3.006 3.006 0 0 1 0 4.25l-4.24-4.25a3 3 0 0 1 4.24 0z" fill="#ffd422"/><path d="m6.418 45.626h3v2h-3z" fill="#aa6100" transform="matrix(.707 -.707 .707 .707 -30.65 19.256)"/><path d="m10.101 42.444h2v2h-2z" fill="#aa6100" transform="matrix(.707 -.707 .707 .707 -27.468 20.574)"/><path d="m23.243 28.302h4v2h-4z" fill="#ff6243" transform="matrix(.707 -.707 .707 .707 -13.326 26.431)"/><path d="m18.057 24.766h4.472v2h-4.472z" fill="#ff6243" transform="matrix(.316 -.949 .949 .316 -10.57 36.865)"/><path d="m26.542 33.251h4.472v2h-4.472z" fill="#ff6243" transform="matrix(.949 -.316 .316 .949 -9.358 10.864)"/><path d="m12 6h2v2h-2z" fill="#ed1c24"/><path d="m16 6h2v2h-2z" fill="#ed1c24"/><path d="m20 6h2v2h-2z" fill="#ed1c24"/><g fill="#3d9ae2"><path d="m30 46h4v2h-4z"/><path d="m36 46h8v2h-8z"/><path d="m45 46h11v2h-11z"/><path d="m30 50h12v2h-12z"/><path d="m44 50h12v2h-12z"/></g></svg>