<svg id="Capa_1" enable-background="new 0 0 512 512" height="512" viewBox="0 0 512 512" width="512" xmlns="http://www.w3.org/2000/svg"><path id="XMLID_1496_" d="m284.449 316.827 20.556-72.721c2.234-7.903 11.345-11.55 18.415-7.372l25.939 15.33c3.811 2.252 6.149 6.35 6.149 10.777v18.727z" fill="#79b2ff"/><path id="XMLID_1576_" d="m284.449 316.827-79.679 34.58-150.629 61.49c-2.02.825-3.967 1.818-5.82 2.97-11.393 7.082-18.321 19.546-18.321 32.961v14.798c23.061 24.489 55.207 38.374 88.845 38.374h342.542c22.43 0 40.612-18.183 40.612-40.612v-30.274-38.369c0-19.652-6.579-38.739-18.688-54.217 0-18.846-3.02-37.569-8.946-55.459l-.159-.479-12.703 2.639c-44.654 9.275-91.069 4.825-133.146-12.765z" fill="#79b2ff"/><path id="XMLID_1494_" d="m479.295 340.509-66.778-.082c-40.79-.05-80.323-14.129-111.963-39.873l27.803-28.092c42.078 17.591 88.493 22.041 133.146 12.765l12.703-2.639.159.479c5.926 17.89 8.946 36.613 8.946 55.459.511.654 1.013 1.314 1.505 1.98z" fill="#cee3ff"/><path id="XMLID_1708_" d="m30.034 447.288c21.234 8.574 43.92 12.98 66.82 12.98h186.311c27.551 0 54.763-6.076 79.697-17.796l7.958-3.741c24.934-11.72 52.146-17.796 79.697-17.796h51.483v10.178 30.274c0 22.43-18.183 40.612-40.612 40.612h-342.543c-33.638.001-65.784-13.884-88.845-38.373v-14.798c0-.515.01-1.029.03-1.541" fill="#fff"/><path id="XMLID_1594_" d="m136.237 383.506 4.294 4.294c15.231 15.231 38.155 19.75 58.027 11.438l73.139-30.592c17.603-7.363 22.11-30.229 8.618-43.721z" fill="#cee3ff"/><path id="XMLID_1499_" d="m387.064 431.673-106.749-106.749c13.492 13.492 8.985 36.358-8.618 43.721l-34.025 14.232-3.204 4.354 9.474 9.474c11.986 11.986 10.04 31.935-4.036 41.379l-33.066 22.184h76.325c27.551 0 54.763-6.076 79.697-17.796l7.958-3.741c5.352-2.515 10.808-4.771 16.35-6.762z" fill="#ffcb7c"/><path id="XMLID_1043_" d="m227.551 195.173-20.556 72.721c-2.234 7.903-11.345 11.55-18.415 7.372l-25.939-15.33c-3.811-2.252-6.149-6.35-6.149-10.777v-18.727z" fill="#79b2ff"/><path id="XMLID_1042_" d="m227.551 195.173 79.679-34.58 150.629-61.49c2.02-.825 3.967-1.818 5.82-2.97 11.393-7.082 18.321-19.546 18.321-32.961v-14.798c-23.061-24.489-55.207-38.374-88.845-38.374h-342.543c-22.429 0-40.612 18.183-40.612 40.612v30.274 38.369c0 19.652 6.579 38.739 18.688 54.217 0 18.846 3.02 37.569 8.946 55.459l.159.479 12.703-2.639c44.654-9.275 91.069-4.825 133.146 12.765z" fill="#79b2ff"/><path id="XMLID_1040_" d="m32.705 171.491 66.778.082c40.79.05 80.323 14.129 111.963 39.873l-27.803 28.092c-42.078-17.591-88.493-22.041-133.146-12.765l-12.703 2.639-.159-.479c-5.926-17.89-8.946-36.613-8.946-55.459-.511-.654-1.013-1.314-1.505-1.98z" fill="#cee3ff"/><path id="XMLID_1037_" d="m481.966 64.712c-21.234-8.574-43.92-12.981-66.82-12.981h-186.311c-27.551 0-54.763 6.076-79.697 17.796l-7.958 3.741c-24.934 11.72-52.146 17.796-79.697 17.796h-51.483v-10.177-30.275c0-22.429 18.183-40.612 40.612-40.612h342.542c33.638 0 65.785 13.885 88.845 38.374v14.798c0 .515-.01 1.029-.03 1.541" fill="#fff"/><path id="XMLID_1031_" d="m375.763 128.494-4.294-4.294c-15.231-15.231-38.155-19.75-58.027-11.438l-73.139 30.592c-17.603 7.363-22.11 30.229-8.618 43.721z" fill="#cee3ff"/><path id="XMLID_1029_" d="m124.936 80.327 106.749 106.749c-13.492-13.492-8.985-36.358 8.618-43.721l34.025-14.232 3.204-4.354-9.474-9.474c-11.986-11.986-10.04-31.935 4.036-41.379l33.066-22.184h-76.325c-27.551 0-54.763 6.076-79.697 17.796l-7.958 3.741c-5.352 2.515-10.808 4.771-16.35 6.762z" fill="#ffcb7c"/><path id="XMLID_447_" d="m493.281 335.143c-.339-18.794-3.504-37.354-9.422-55.22l-.159-.479c-1.597-4.82-6.554-7.682-11.526-6.646l-12.703 2.639c-31.331 6.507-63.269 5.995-93.962-1.341v-11.255c0-7.925-4.238-15.354-11.062-19.386l-25.939-15.33c-6.061-3.582-13.286-4.136-19.825-1.52-6.538 2.617-11.386 8.004-13.302 14.78l-19.266 68.156-54.271 23.553c-3.925-3.547-9.98-3.44-13.762.343-1.908 1.909-2.878 4.397-2.921 6.898l-4.272 1.854-21.096 8.612-.738-.738c-3.905-3.906-10.237-3.905-14.142 0-2.187 2.187-3.147 5.134-2.885 7.99l-111.667 45.586c-2.534 1.035-4.997 2.292-7.319 3.735-13.73 8.534-22.177 22.984-22.964 39.001-.036.396-.048.79-.037 1.183-.011.424-.04.844-.04 1.27v14.798c0 2.548.973 5 2.72 6.855 24.845 26.386 59.882 41.519 96.124 41.519h342.542c27.908 0 50.613-22.705 50.613-50.612v-68.644c0-20.62-6.625-40.938-18.719-57.601zm-29.743-40.124 3.771-.783c3.274 11.845 5.196 23.989 5.787 36.266l-35.418-.044c-.004 0-.008 0-.013 0-5.517 0-9.993 4.469-10 9.988-.007 5.523 4.465 10.005 9.988 10.012l41.63.051h.013c.085 0 .167-.011.252-.013 8.063 12.538 12.452 27.29 12.452 42.248v18.191h-41.483c-20.443 0-40.981 3.275-60.505 9.544l-97.541-97.541 8.971-9.064c13.505 9.945 28.248 18.026 43.948 24.059 1.18.454 2.392.668 3.585.668 4.019 0 7.809-2.44 9.336-6.416 1.981-5.155-.592-10.94-5.748-12.921-13.11-5.038-25.473-11.674-36.885-19.774l15.117-15.274c42.384 16.325 88.131 20.069 132.743 10.803zm-212.524 94.615-1.056-1.056 25.598-10.707c10.022-4.192 17.578-12.516 20.847-22.716l73.166 73.166c-1.003.45-2.009.893-3.003 1.36l-7.958 3.741c-23.446 11.021-49.534 16.846-75.443 16.846h-43.47l5.783-3.88c9.202-6.174 15.097-16.041 16.173-27.069 1.075-11.029-2.802-21.849-10.637-29.685zm63.613-142.807c.279-.986.963-1.443 1.488-1.653s1.335-.351 2.217.17l25.939 15.33c.763.451 1.237 1.282 1.237 2.168v5.442c-4.469-1.535-8.904-3.211-13.294-5.047-3.759-1.571-8.097-.705-10.964 2.191l-16.631 16.803zm-106.078 113.838c.068-.028.135-.056.202-.085l8.599-3.732 1.605 1.605c1.953 1.953 4.512 2.929 7.071 2.929s5.119-.977 7.071-2.929c2.594-2.594 3.454-6.256 2.603-9.569l37.943-16.467c3.74 3.993 5.279 9.326 4.213 14.732-1.103 5.597-4.754 10.069-10.017 12.271l-73.139 30.592c-14.655 6.13-31.184 3.729-43.394-5.979l23.742-9.692.738.738c1.953 1.953 4.512 2.929 7.071 2.929s5.119-.977 7.071-2.929c2.187-2.187 3.147-5.134 2.885-7.991zm-154.948 63.695c1.371-.852 2.824-1.594 4.32-2.205l73.017-29.808 2.523 2.523c12.107 12.106 28.157 18.516 44.534 18.516 8.21 0 16.504-1.611 24.423-4.923l27.597-11.543 6.857 6.857c3.59 3.59 5.367 8.547 4.874 13.6-.493 5.054-3.193 9.574-7.41 12.403l-30.538 20.488h-106.944c-19.087 0-37.791-3.187-55.712-9.478 1.941-6.743 6.294-12.598 12.459-16.43zm407.787 67.64h-342.543c-28.061 0-55.266-10.699-75.833-29.581 17.441 5.212 35.482 7.849 53.841 7.849h109.98c.005 0 .011.001.016.001s.009-.001.014-.001h76.301c28.831 0 57.86-6.482 83.95-18.746l7.958-3.741c23.447-11.021 49.535-16.846 75.443-16.846h41.485v30.453c0 16.88-13.732 30.612-30.612 30.612z"/><path id="XMLID_1352_" d="m28.3 232.556c1.597 4.82 6.554 7.68 11.526 6.646l12.703-2.639c31.33-6.508 63.269-5.995 93.962 1.34v11.255c0 7.925 4.238 15.354 11.062 19.386l25.939 15.33c3.537 2.09 7.47 3.15 11.432 3.15 2.828 0 5.67-.54 8.393-1.63 6.538-2.617 11.386-8.004 13.302-14.78l19.266-68.156 54.271-23.553c1.899 1.717 4.292 2.586 6.692 2.586 2.559 0 5.119-.977 7.071-2.929 1.908-1.909 2.878-4.397 2.921-6.898l4.272-1.854 21.096-8.612.738.738c1.953 1.953 4.512 2.929 7.071 2.929s5.119-.977 7.071-2.929c2.187-2.187 3.147-5.134 2.885-7.99l111.666-45.585c2.534-1.035 4.997-2.292 7.319-3.735 13.73-8.534 22.177-22.984 22.964-39.001.036-.396.048-.79.037-1.183.011-.424.04-.844.04-1.27v-14.798c0-2.548-.973-5-2.72-6.855-24.845-26.386-59.882-41.519-96.124-41.519h-342.543c-27.907 0-50.612 22.705-50.612 50.612v68.644c0 20.62 6.625 40.938 18.719 57.602.339 18.794 3.504 37.354 9.422 55.22zm68.337-20.544c-16.065 0-32.194 1.65-48.175 4.97l-3.771.783c-3.274-11.845-5.196-23.989-5.787-36.266l60.566.074c34.677.043 68.66 10.963 96.851 30.938l-15.116 15.273c-27.201-10.477-55.786-15.772-84.568-15.772zm164.349-89.646 1.056 1.056-25.598 10.707c-10.022 4.192-17.578 12.516-20.847 22.716l-73.166-73.166c1.003-.45 2.009-.893 3.003-1.36l7.958-3.741c23.446-11.021 49.534-16.846 75.443-16.846h43.47l-5.783 3.88c-9.202 6.174-15.097 16.041-16.173 27.069-1.075 11.029 2.802 21.849 10.637 29.685zm-63.613 142.807c-.279.986-.963 1.443-1.488 1.653-.524.211-1.334.352-2.217-.17l-25.939-15.33c-.763-.451-1.237-1.282-1.237-2.168v-5.442c4.469 1.535 8.904 3.212 13.294 5.047 1.246.521 2.556.774 3.854.774 2.619 0 5.193-1.03 7.11-2.966l16.631-16.803zm106.078-113.838c-.068.028-.135.056-.202.085l-8.599 3.732-1.605-1.605c-3.905-3.905-10.237-3.905-14.142 0-2.594 2.594-3.454 6.256-2.603 9.569l-37.943 16.467c-3.74-3.993-5.279-9.326-4.213-14.732 1.103-5.597 4.754-10.069 10.017-12.271l73.139-30.592c14.654-6.13 31.183-3.729 43.393 5.979l-23.741 9.692-.738-.738c-3.904-3.905-10.237-3.905-14.142 0-2.187 2.187-3.147 5.134-2.885 7.991zm154.948-63.695c-1.371.852-2.824 1.594-4.32 2.205l-73.017 29.808-2.523-2.523c-18.177-18.176-45.245-23.511-68.957-13.592l-27.597 11.543-6.857-6.857c-3.59-3.59-5.367-8.547-4.874-13.6.493-5.054 3.193-9.574 7.41-12.403l30.538-20.488h106.943c19.087 0 37.791 3.187 55.712 9.478-1.94 6.742-6.293 12.597-12.458 16.429zm-407.787-67.64h342.542c28.061 0 55.267 10.699 75.833 29.581-17.441-5.212-35.482-7.849-53.841-7.849h-109.945c-.013 0-.026 0-.038 0h-76.327c-28.831 0-57.86 6.482-83.95 18.746l-7.958 3.741c-23.448 11.021-49.536 16.846-75.445 16.846h-41.483v-30.453c0-16.88 13.732-30.612 30.612-30.612zm-30.612 81.065h41.483c20.443 0 40.981-3.275 60.505-9.544l97.541 97.541-8.973 9.066c-32.064-23.579-71.151-36.506-111.062-36.555l-66.778-.082c-.004 0-.008 0-.012 0-.085 0-.168.011-.253.013-8.062-12.538-12.451-27.29-12.451-42.248z"/><path id="XMLID_1408_" d="m392.69 349.29c2.63 0 5.21-1.07 7.07-2.93s2.93-4.44 2.93-7.07c0-2.64-1.07-5.21-2.93-7.08-1.86-1.86-4.44-2.92-7.07-2.92-2.64 0-5.21 1.06-7.07 2.92-1.87 1.86-2.93 4.44-2.93 7.08 0 2.63 1.06 5.21 2.93 7.07 1.86 1.86 4.43 2.93 7.07 2.93z"/></svg>