<svg height="512pt" viewBox="-58 0 512 512" width="512pt" xmlns="http://www.w3.org/2000/svg"><path d="m197.5 7.5c-22.058594 0-52.027344 18.5625-66.5 48.582031l-44.5 127.761719 111 152.851562h28.699219c63.554687-15.734374 111.300781-82.671874 111.300781-162.851562 0-91.871094-62.679688-166.34375-140-166.34375zm0 0" fill="#c77464"/><path d="m117.5 173.84375c0-91.871094 35.816406-166.34375 80-166.34375-77.320312 0-140 74.476562-140 166.34375 0 80.199219 47.769531 147.136719 111.347656 162.847656h28.652344v-162.847656zm0 0" fill="#ac6757"/><path d="m197.5 67.5c-43.429688 0-80 48.234375-80 106.34375 0 57.472656 35.867188 106.214844 80 106.214844 44.574219 0 80-49.359375 80-106.214844 0-57.851562-36.378906-106.34375-80-106.34375zm0 0" fill="#7ce3ff"/><path d="m197.5 310.058594-100 116.738281h200v47.703125c0 16.566406 13.433594 30 30 30s30-13.433594 30-30v-164.441406zm0 0" fill="#c77464"/><path d="m197.5 310.058594h-160v164.238281c0 16.566406 13.429688 30 30 30s30-13.433594 30-30v-47.5h135.738281c-22.882812-22.882813-35.738281-55.484375-35.738281-87.84375zm0 0" fill="#ac6757"/><path d="m357.5 340.058594h-320c-16.570312 0-30-13.429688-30-30 0-16.566406 13.429688-30 30-30h320c16.570312 0 30 13.433594 30 30 0 16.570312-13.429688 30-30 30zm0 0" fill="#c77464"/><path d="m258.628906 213.699219c2.957032-2.957031 2.917969-7.703125 0-10.601563l-68.789062-68.789062c-2.890625-2.910156-7.652344-2.957032-10.609375 0-2.921875 2.921875-2.921875 7.679687 0 10.601562l68.789062 68.789063c2.929688 2.929687 7.664063 2.945312 10.609375 0zm0 0"/><path d="m136.359375 133.859375c-2.917969 2.921875-2.917969 7.679687 0 10.609375l68.789063 68.78125c2.894531 2.914062 7.664062 2.953125 10.601562 0 2.933594-2.914062 2.9375-7.683594 0-10.601562l-68.78125-68.789063c-2.929688-2.925781-7.664062-2.945313-10.609375 0zm0 0"/><path d="m395 310.0625c0-20.679688-16.820312-37.5-37.5-37.5h-116.71875c24.660156-18.507812 44.21875-54.601562 44.21875-98.71875 0-29.609375-8.929688-57.796875-25.144531-79.371094-16.710938-22.230468-38.851563-34.472656-62.355469-34.472656-18.503906 0-36.273438 7.636719-51.390625 22.085938-2.996094 2.859374-3.101563 7.609374-.238281 10.601562 2.859375 2.992188 7.605468 3.101562 10.601562.238281 12.269532-11.726562 26.457032-17.925781 41.027344-17.925781 39.300781 0 72.5 45.265625 72.5 98.84375 0 53.511719-33.199219 98.71875-72.5 98.71875s-72.5-45.207031-72.5-98.71875c0-21.234375 5.09375-41.613281 14.722656-58.925781 2.015625-3.621094.714844-8.1875-2.90625-10.199219-3.621094-2.015625-8.1875-.714844-10.199218 2.90625-10.871094 19.539062-16.617188 42.4375-16.617188 66.21875 0 37.945312 15.28125 77.003906 44.234375 98.71875h-60.496094c-18.5625-27.984375-28.738281-62.871094-28.738281-98.722656-.023438-86.898438 58.726562-158.820313 132.5-158.839844 73.835938.019531 132.519531 72.019531 132.5 158.839844 0 26.988281-5.75 53.640625-16.640625 77.089844-1.765625 3.757812-.121094 8.207031 3.640625 9.960937 3.914062 1.800781 8.289062-.039063 9.960938-3.652344 12.082031-26.011719 18.039062-54.597656 18.039062-83.398437 0-96.171875-66.109375-173.839844-147.472656-173.839844h-.058594c-82.671875 0-147.46875 79.207031-147.46875 173.839844 0 36.714844 9.652344 70.75 26.054688 98.722656h-38.554688c-20.679688 0-37.5 16.820312-37.5 37.5 0 18.285156 13.15625 33.542969 30.5 36.832031v127.402344c0 20.679687 16.820312 37.5 37.5 37.5s37.5-16.820313 37.5-37.5v-40h185v40.203125c0 20.679688 16.820312 37.5 37.5 37.5s37.5-16.820312 37.5-37.5v-127.808594c16.847656-3.675781 29.5-18.699218 29.5-36.628906zm-67 186.9375c-12.40625 0-22.5-10.09375-22.5-22.5v-47.703125c0-4.144531-3.355469-7.5-7.5-7.5h-200c-4.144531 0-7.5 3.355469-7.5 7.5v47.5c0 12.40625-10.09375 22.5-22.5 22.5s-22.5-10.09375-22.5-22.5v-126.734375h305v126.9375c0 12.40625-10.09375 22.5-22.5 22.5zm29.5-164.4375h-320c-12.40625 0-22.5-10.09375-22.5-22.5s10.09375-22.5 22.5-22.5h320c12.40625 0 22.5 10.09375 22.5 22.5s-10.09375 22.5-22.5 22.5zm0 0"/><path d="m133.5 364.492188c-4.144531 0-7.5 3.359374-7.5 7.5v10c0 4.144531 3.355469 7.5 7.5 7.5s7.5-3.355469 7.5-7.5v-10c0-4.140626-3.355469-7.5-7.5-7.5zm0 0"/><path d="m261.5 364.492188c-4.144531 0-7.5 3.359374-7.5 7.5v10c0 4.144531 3.355469 7.5 7.5 7.5s7.5-3.355469 7.5-7.5v-10c0-4.140626-3.355469-7.5-7.5-7.5zm0 0"/><path d="m217.234375 373.226562c-3.730469-1.785156-8.214844-.207031-10 3.53125-1.667969 3.484376-5.292969 5.734376-9.234375 5.734376s-7.566406-2.25-9.234375-5.734376c-1.785156-3.738281-6.265625-5.316406-10-3.53125-3.738281 1.785157-5.316406 6.265626-3.53125 10 4.144531 8.667969 13.078125 14.265626 22.765625 14.265626s18.625-5.597657 22.769531-14.265626c1.785157-3.734374.203125-8.214843-3.535156-10zm0 0"/></svg>