<?xml version="1.0" encoding="iso-8859-1"?>
<!-- Generator: Adobe Illustrator 19.0.0, SVG Export Plug-In . SVG Version: 6.00 Build 0)  -->
<svg version="1.1" id="Capa_1" xmlns="http://www.w3.org/2000/svg" xmlns:xlink="http://www.w3.org/1999/xlink" x="0px" y="0px"
	 viewBox="0 0 512 512" style="enable-background:new 0 0 512 512;" xml:space="preserve">
<path style="fill:#A0E557;" d="M220.25,400.636v-134.2c0-40.558,32.879-73.437,73.437-73.437h77.126
	c40.558,0,73.437,32.879,73.437,73.437v134.2H220.25z"/>
<g>
	<polygon style="fill:#C9F3FF;" points="302.746,436.477 274.837,475 230.837,475 246.918,435.823 	"/>
	<polygon style="fill:#C9F3FF;" points="417.581,435.823 433.663,475 389.663,475 361.754,436.477 	"/>
</g>
<path style="fill:#D8FB93;" d="M470,261.324L470,261.324c-17.673,0-32,14.327-32,32v28.392v29.221c0,22.091-17.909,40-40,40H266.5
	c-22.091,0-40-17.909-40-40v-34.781v-22.832c0-17.673-14.327-32-32-32l0,0c-17.673,0-32,14.327-32,32v0.905
	c0,13.155,8.328,24.364,20,28.644v32.064c0,44.183,35.817,80,80,80H402c44.183,0,80-35.817,80-80v-32.064
	c11.672-4.28,20-15.489,20-28.644v-0.905C502,275.651,487.673,261.324,470,261.324z"/>
<polygon style="fill:#FFC66C;" points="179,162 10,162 53.896,37 135.104,37 "/>
<rect x="74.5" y="162" style="fill:#C9F3FF;" width="40" height="313"/>
<path d="M145.237,465H124.5V172H179c3.243,0,6.284-1.572,8.159-4.218s2.351-6.036,1.276-9.096l-43.896-125
	C143.132,29.681,139.35,27,135.104,27H53.896c-4.246,0-8.028,2.681-9.435,6.687l-43.896,125c-1.074,3.06-0.599,6.45,1.276,9.096
	S6.757,172,10,172h4.02v32c0,5.523,4.477,10,10,10s10-4.477,10-10v-32H64.5v293H43.737c-5.523,0-10,4.477-10,10s4.477,10,10,10H74.5
	h40h30.737c5.523,0,10-4.477,10-10S150.76,465,145.237,465z M60.983,47h67.034l36.873,105H114.5h-40H24.11L60.983,47z M84.5,465V172
	h20v293H84.5z"/>
<path d="M470,251.324c-5.888,0-11.495,1.223-16.586,3.421C447.709,214.255,412.851,183,370.813,183h-77.126
	c-42.038,0-76.896,31.255-82.601,71.745c-5.091-2.197-10.698-3.421-16.586-3.421c-23.159,0-42,18.841-42,42v0.905
	c0,14.855,8.044,27.859,20,34.907v25.801c0,39.756,25.914,73.57,61.735,85.449l-12.65,30.816c-1.266,3.084-0.912,6.597,0.945,9.366
	c1.856,2.77,4.972,4.431,8.306,4.431h44c3.206,0,6.217-1.537,8.098-4.133l26.031-35.93h46.568l26.031,35.93
	c1.881,2.596,4.893,4.133,8.098,4.133h44c3.334,0,6.449-1.662,8.306-4.431s2.211-6.282,0.945-9.366l-12.65-30.816
	C466.086,428.507,492,394.694,492,354.937v-25.801c11.956-7.048,20-20.053,20-34.907v-0.905
	C512,270.165,493.159,251.324,470,251.324z M269.733,465h-23.982l8.396-20.454c2.751,0.254,5.536,0.391,8.353,0.391h21.768
	L269.733,465z M418.748,465h-23.982l-14.535-20.063H402c2.817,0,5.601-0.137,8.353-0.391L418.748,465z M492,294.229
	c0,11.304-9.196,20.5-20.5,20.5c-5.523,0-10,4.477-10,10s4.477,10,10,10c0.168,0,0.333-0.011,0.5-0.013v20.221
	c0,38.598-31.402,70-70,70H262.5c-38.598,0-70-31.402-70-70v-20.221c0.167,0.002,0.332,0.013,0.5,0.013c5.523,0,10-4.477,10-10
	s-4.477-10-10-10c-11.304,0-20.5-9.196-20.5-20.5v-0.905c0-12.131,9.869-22,22-22s22,9.869,22,22v57.613c0,27.57,22.43,50,50,50
	h18.269c5.523,0,10-4.477,10-10s-4.477-10-10-10H266.5c-16.542,0-30-13.458-30-30v-57.613c0-8.067-2.291-15.607-6.25-22.013v-4.875
	c0-34.98,28.458-63.437,63.437-63.437h77.126c34.979,0,63.437,28.458,63.437,63.437v4.875c-3.959,6.406-6.25,13.945-6.25,22.013
	v57.613c0,16.542-13.458,30-30,30h-32c-5.523,0-10,4.477-10,10s4.477,10,10,10h32c27.57,0,50-22.43,50-50v-57.613
	c0-12.131,9.869-22,22-22s22,9.869,22,22L492,294.229L492,294.229z"/>
<path d="M379.73,306.82c-2.63,0-5.21-1.07-7.07-2.93c-1.86-1.86-2.93-4.44-2.93-7.07s1.07-5.21,2.93-7.07
	c1.86-1.86,4.44-2.93,7.07-2.93s5.21,1.07,7.07,2.93c1.86,1.86,2.93,4.44,2.93,7.07s-1.07,5.21-2.93,7.07
	C384.94,305.75,382.36,306.82,379.73,306.82z"/>
<path d="M284.77,306.82c-2.63,0-5.21-1.07-7.07-2.93c-1.86-1.86-2.93-4.44-2.93-7.07s1.07-5.21,2.93-7.07
	c1.86-1.86,4.44-2.93,7.07-2.93s5.21,1.07,7.07,2.93c1.86,1.86,2.93,4.44,2.93,7.07s-1.07,5.21-2.93,7.07
	C289.98,305.75,287.4,306.82,284.77,306.82z"/>
<path d="M24.02,251c-2.63,0-5.21-1.07-7.07-2.93c-1.86-1.86-2.93-4.44-2.93-7.07s1.07-5.21,2.93-7.07s4.44-2.93,7.07-2.93
	s5.21,1.07,7.07,2.93c1.86,1.86,2.93,4.44,2.93,7.07s-1.07,5.21-2.93,7.07C29.23,249.93,26.65,251,24.02,251z"/>
<path d="M327.07,400.94c-2.63,0-5.21-1.07-7.07-2.93c-1.86-1.86-2.93-4.44-2.93-7.07s1.07-5.21,2.93-7.07
	c1.86-1.86,4.44-2.93,7.07-2.93s5.21,1.07,7.07,2.93c1.86,1.86,2.93,4.44,2.93,7.07s-1.07,5.21-2.93,7.07
	C332.28,399.87,329.7,400.94,327.07,400.94z"/>
<g>
</g>
<g>
</g>
<g>
</g>
<g>
</g>
<g>
</g>
<g>
</g>
<g>
</g>
<g>
</g>
<g>
</g>
<g>
</g>
<g>
</g>
<g>
</g>
<g>
</g>
<g>
</g>
<g>
</g>
</svg>
