<svg height="512" viewBox="0 0 512 512" width="512" xmlns="http://www.w3.org/2000/svg"><g id="Wedding_Rings" data-name="Wedding Rings"><path d="m176 168a168 168 0 1 0 168 168 168 168 0 0 0 -168-168zm0 288a120 120 0 1 1 120-120 120.136 120.136 0 0 1 -120 120z" fill="#efc465"/><path d="m320 40h-53.714l-26.286 40h48z" fill="#ffd9dc"/><path d="m288 80h-48l54.118 96h33.882v-8z" fill="#ffd9dc"/><path d="m336 168v8h33.882l54.118-96h-48z" fill="#ffa4b1"/><path d="m344 40 32 40h48l-26.286-40z" fill="#ffccd2"/><path d="m376 80h-88l40 88v8h8v-8z" fill="#ffccd2"/><path d="m376 80-32-40h-24l-32 40z" fill="#fff2f4"/><path d="m267.191 413.91a119.986 119.986 0 0 1 -71.882 40.529 185.409 185.409 0 0 0 43.2 37.538 168.51 168.51 0 0 0 71.9-55.168 103.851 103.851 0 0 1 -43.218-22.899z" fill="#e2b65d"/><path d="m267.191 258.09a103.851 103.851 0 0 1 43.21-22.9 168.51 168.51 0 0 0 -71.9-55.168 185.409 185.409 0 0 0 -43.2 37.538 119.986 119.986 0 0 1 71.89 40.53z" fill="#e2b65d"/><path d="m336 168a168 168 0 1 0 168 168 168 168 0 0 0 -168-168zm0 288a120 120 0 1 1 120-120 120.136 120.136 0 0 1 -120 120z" fill="#efc465"/><circle cx="268" cy="52" fill="#fff2f4" r="12"/><circle cx="316" cy="108" fill="#fff2f4" r="12"/><path d="m244.809 258.09a119.986 119.986 0 0 1 71.882-40.529 185.409 185.409 0 0 0 -43.2-37.538 168.51 168.51 0 0 0 -71.9 55.168 103.851 103.851 0 0 1 43.218 22.899z" fill="#e2b65d"/><path d="m56 336a120 120 0 0 1 240 0h48a168 168 0 0 0 -336 0z" fill="#efc465"/><circle cx="108" cy="196" fill="#f7eacd" r="12"/><circle cx="148" cy="184" fill="#f7eacd" r="16"/><path d="m489.041 266.608a243.653 243.653 0 0 1 -44.554 120.647 120.769 120.769 0 0 1 -57.232 57.232 243.653 243.653 0 0 1 -120.647 44.554 168.076 168.076 0 0 0 222.433-222.433z" fill="#e2b65d"/><path d="m276.6 136.93a8.02 8.02 0 0 0 -3.92 1.03 7.993 7.993 0 0 0 -3.04 10.9 8 8 0 1 0 6.96-11.93z"/><path d="m260.9 125.06a8.011 8.011 0 0 0 6.96-11.93l-18.5-32.81 21.24-32.32h32.755l-19.2 24h-12.155a8 8 0 0 0 0 16h10.848l23.869 52.52a8 8 0 1 0 14.566-6.62l-20.86-45.9h63.153l-20.55 45.2a8 8 0 1 0 14.567 6.622l23.558-51.822h29.158l-28.789 51.06a8 8 0 0 0 13.94 7.86l37.89-67.21.009-.03-2.686-4.089c-.022-.033-.043-.066-.066-.1l-28.567-43.471-57.755-.008c-.162-.006-.325 0-.488 0h-23.678c-.119 0-.238 0-.357 0l-57.783-.012-31.329 47.65-.01.03 23.28 41.3a8.015 8.015 0 0 0 6.98 4.08zm132.49-77.06 15.779 24h-29.325l-19.2-24zm-69.545 0h16.31l19.2 24h-54.71z"/><path d="m336 160a176.063 176.063 0 0 0 -45.394 5.92 8 8 0 1 0 4.127 15.459 160.051 160.051 0 0 1 41.267-5.379c88.225 0 160 71.776 160 160s-71.775 160-160 160a160.032 160.032 0 0 1 -137.168-242.411 8 8 0 0 0 -13.7-8.258 175.935 175.935 0 0 0 150.868 266.669c97.047 0 176-78.953 176-176s-78.953-176-176-176z"/><path d="m243.03 269.28a7.994 7.994 0 0 0 -14.53-2.68 127.574 127.574 0 0 0 -3.43 133.21 8 8 0 0 0 13.86-8.01 111.752 111.752 0 0 1 2.99-116.5 7.89 7.89 0 0 0 1.11-6.02z"/><path d="m245.79 415.44a7.991 7.991 0 1 0 5.67-2.36 8.024 8.024 0 0 0 -5.67 2.36z"/><path d="m272.91 447.34a127.355 127.355 0 0 0 62.99 16.66h.1a128 128 0 0 0 0-256h-.09a8 8 0 0 0 0 16h.09a112 112 0 0 1 0 224h-.09a111.905 111.905 0 0 1 -55.091-14.56 8 8 0 1 0 -7.909 13.9z"/><path d="m272.439 407.763a8 8 0 0 0 11.061-2.363 127.968 127.968 0 1 0 -107.521 58.6 8 8 0 0 0 0-16 112.109 112.109 0 1 1 94.1-51.3 8 8 0 0 0 2.36 11.063z"/><path d="m101.98 184.93a8.007 8.007 0 0 0 7.35 4.83 7.912 7.912 0 0 0 3.17-.67 160.052 160.052 0 0 1 200.67 229.32 8 8 0 1 0 13.7 8.26 175.7 175.7 0 0 0 -4.931-189.07 176.8 176.8 0 0 0 -47.54-47.54 175.06 175.06 0 0 0 -98.399-30.06h-.01a177.383 177.383 0 0 0 -36.19 3.73 174.683 174.683 0 0 0 -33.65 10.68 8.011 8.011 0 0 0 -4.17 10.52z"/><path d="m219.11 490.41a7.924 7.924 0 0 0 -2.06.27 160.019 160.019 0 0 1 -154.58-267.42 8.015 8.015 0 0 0 -.04-11.32 8 8 0 0 0 -11.31.04 176.413 176.413 0 0 0 -37.41 55.8 175.71 175.71 0 0 0 16.35 166.62 176.842 176.842 0 0 0 47.54 47.54 176.317 176.317 0 0 0 143.55 24.2 8 8 0 0 0 -2.04-15.73z"/><path d="m81.36 205.18a8 8 0 1 0 -6.61-3.49 7.945 7.945 0 0 0 6.61 3.49z"/><path d="m64 48a8 8 0 0 0 8-8v-32a8 8 0 0 0 -16 0v32a8 8 0 0 0 8 8z"/><path d="m64 112a8 8 0 0 0 8-8v-32a8 8 0 0 0 -16 0v32a8 8 0 0 0 8 8z"/><path d="m8 64h32a8 8 0 0 0 0-16h-32a8 8 0 0 0 0 16z"/><path d="m88 64h32a8 8 0 0 0 0-16h-32a8 8 0 0 0 0 16z"/><path d="m472 136a8 8 0 0 0 8-8v-8a8 8 0 0 0 -16 0v8a8 8 0 0 0 8 8z"/><path d="m472 192a8 8 0 0 0 8-8v-8a8 8 0 0 0 -16 0v8a8 8 0 0 0 8 8z"/><path d="m440 160h8a8 8 0 0 0 0-16h-8a8 8 0 0 0 0 16z"/><path d="m496 160h8a8 8 0 0 0 0-16h-8a8 8 0 0 0 0 16z"/><path d="m184 88a8 8 0 0 0 8-8v-8a8 8 0 0 0 -16 0v8a8 8 0 0 0 8 8z"/><path d="m184 144a8 8 0 0 0 8-8v-8a8 8 0 0 0 -16 0v8a8 8 0 0 0 8 8z"/><path d="m152 112h8a8 8 0 0 0 0-16h-8a8 8 0 0 0 0 16z"/><path d="m208 112h8a8 8 0 0 0 0-16h-8a8 8 0 0 0 0 16z"/></g></svg>