<?xml version="1.0" encoding="iso-8859-1"?>
<!-- Generator: Adobe Illustrator 19.0.0, SVG Export Plug-In . SVG Version: 6.00 Build 0)  -->
<svg version="1.1" id="Capa_1" xmlns="http://www.w3.org/2000/svg" xmlns:xlink="http://www.w3.org/1999/xlink" x="0px" y="0px"
	 viewBox="0 0 480 480" style="enable-background:new 0 0 480 480;" xml:space="preserve">
<path style="fill:#68C9BA;" d="M88,376H24c-8.84,0-16,7.16-16,16v16c0,8.84,7.16,16,16,16h64c8.84,0,16-7.16,16-16v-16
	C104,383.16,96.84,376,88,376z"/>
<path style="fill:#F7BA21;" d="M224,408c8.84,0,16-7.16,16-16v20c0,11.048,8.952,20,20,20s20-8.952,20-20v-36h-40h-32v16
	C208,400.84,215.16,408,224,408z"/>
<path style="fill:#EFE5D3;" d="M280,412c0,11.048-8.952,20-20,20s-20-8.952-20-20v-20c0,8.84-7.16,16-16,16s-16-7.16-16-16v-16h-32
	v16v16c0,35.344,28.656,64,64,64h168c35.344,0,64-28.656,64-64v-32H280V412z"/>
<path style="fill:#68C9BA;" d="M296,200l-48.688-62.6c-4.712-6.064-11.456-10.224-18.984-11.736l-11.536-2.304
	c-10.488-2.096-21.336,1.184-28.904,8.752l-23.784,23.784c-7.568,7.568-10.848,18.408-8.752,28.904l2.304,11.536
	c1.504,7.528,5.672,14.272,11.736,18.984L232,264L296,200z"/>
<g>
	<path style="fill:#EFE5D3;" d="M337.376,161.376c12.496,12.496,32.76,12.496,45.256,0L392,152l-64-64l-9.376,9.376
		c-12.496,12.496-12.496,32.76,0,45.256L337.376,161.376z"/>
	<path style="fill:#EFE5D3;" d="M241.376,273.376c12.496,12.496,32.76,12.496,45.256,0l18.744-18.744
		c12.496-12.496,12.496-32.76,0-45.256L296,200l-64,64L241.376,273.376z"/>
</g>
<path style="fill:#F7BA21;" d="M454.136,103.672c6.344-4.936,10.6-12.072,11.92-20l3.24-19.432
	c1.696-10.192-1.632-20.584-8.936-27.888L443.648,19.64c-7.304-7.304-17.696-10.64-27.888-8.936l-19.432,3.24
	c-7.928,1.32-15.064,5.576-20,11.92L328,88l64,64L454.136,103.672z M384,80c0-8.84,7.16-16,16-16s16,7.16,16,16s-7.16,16-16,16
	S384,88.84,384,80z"/>
<circle style="fill:#EFE5D3;" cx="400" cy="80" r="16"/>
<g>
	<path style="fill:#353535;" d="M472,368H176c-4.416,0-8,3.576-8,8v8h-57.472c-3.312-9.288-12.112-16-22.528-16H24
		c-13.232,0-24,10.768-24,24v16c0,13.232,10.768,24,24,24h64c13.232,0,24-10.768,24-24v-8h56v8c0,39.704,32.304,72,72,72h168
		c39.696,0,72-32.296,72-72v-32C480,371.576,476.416,368,472,368z M96,408c0,4.416-3.592,8-8,8H24c-4.408,0-8-3.584-8-8v-16
		c0-4.416,3.592-8,8-8h64c4.408,0,8,3.584,8,8V408z M216,384h16v8c0,4.416-3.592,8-8,8s-8-3.584-8-8V384z M248,384h24v28
		c0,6.616-5.384,12-12,12s-12-5.384-12-12V384z M464,408c0,30.872-25.12,56-56,56H240c-30.88,0-56-25.128-56-56v-24h16v8
		c0,13.232,10.768,24,24,24c2.848,0,5.584-0.496,8.12-1.416C233.424,428.824,245.432,440,260,440c15.44,0,28-12.56,28-28v-28h176
		V408z"/>
	<path style="fill:#353535;" d="M147.512,186.368l2.304,11.528c1.88,9.408,7.088,17.832,14.664,23.728L226.68,270l9.032,9.032
		c7.8,7.8,18.04,11.696,28.288,11.696c10.24,0,20.488-3.896,28.288-11.696l18.744-18.752c7.552-7.544,11.72-17.592,11.72-28.28
		s-4.168-20.736-11.72-28.28l-9-9l-48.408-62.232c-5.888-7.568-14.32-12.784-23.736-14.664l-11.528-2.304
		c-13.144-2.616-26.648,1.456-36.128,10.936l-23.784,23.784C148.976,159.712,144.888,173.216,147.512,186.368z M299.712,248.968
		l-18.744,18.752c-9.368,9.344-24.592,9.336-33.944,0l-3.712-3.72L296,211.312l3.712,3.72c4.536,4.528,7.032,10.552,7.032,16.968
		S304.248,244.44,299.712,248.968z M169.768,161.544l23.784-23.784c4.552-4.544,10.656-7.032,16.952-7.032
		c1.568,0,3.16,0.16,4.728,0.472l11.528,2.304c5.648,1.136,10.704,4.256,14.24,8.808l44.352,57.024l-54.008,54.016L174.32,209
		c-4.544-3.536-7.672-8.592-8.808-14.24l-2.312-11.536C161.624,175.336,164.08,167.232,169.768,161.544z"/>
	<path style="fill:#353535;" d="M397.312,158l61.728-48.008c7.952-6.184,13.24-15.064,14.896-25.008l3.24-19.432
		c2.12-12.712-2.056-25.744-11.168-34.848l-16.712-16.72c-9.12-9.112-22.16-13.296-34.856-11.168l-19.432,3.232
		c-9.936,1.656-18.816,6.944-25,14.896l-48.04,61.768l-9,9c-7.56,7.552-11.72,17.592-11.72,28.28s4.168,20.736,11.72,28.28
		l18.744,18.752c7.8,7.8,18.04,11.696,28.288,11.696c10.24-0.008,20.488-3.896,28.288-11.696L397.312,158z M382.648,30.784
		c3.712-4.776,9.04-7.952,15-8.944l19.44-3.232c7.608-1.264,15.44,1.232,20.912,6.696l16.712,16.72
		c5.472,5.472,7.976,13.28,6.704,20.912l-3.24,19.432c-0.992,5.96-4.168,11.288-8.936,15l-56.56,43.992l-54.008-54.016
		L382.648,30.784z M376.976,155.72c-9.368,9.344-24.592,9.336-33.944,0l-18.744-18.752c-4.536-4.528-7.032-10.552-7.032-16.968
		s2.496-12.44,7.032-16.968l3.712-3.72L380.688,152L376.976,155.72z"/>
	<rect x="272" y="328" style="fill:#353535;" width="16" height="16"/>
	<rect x="304" y="312" style="fill:#353535;" width="16" height="16"/>
	<rect x="336" y="336" style="fill:#353535;" width="16" height="16"/>
	<rect x="352" y="248" style="fill:#353535;" width="16" height="16"/>
	<rect x="352" y="208" style="fill:#353535;" width="16" height="16"/>
	<rect x="344" y="288" style="fill:#353535;" width="16" height="16"/>
	
		<rect x="201.361" y="184.005" transform="matrix(-0.7071 0.7071 -0.7071 -0.7071 518.1402 169.3899)" style="fill:#353535;" width="45.256" height="16"/>
	<path style="fill:#353535;" d="M424,80c0-13.232-10.768-24-24-24s-24,10.768-24,24s10.768,24,24,24S424,93.232,424,80z M392,80
		c0-4.416,3.592-8,8-8s8,3.584,8,8s-3.592,8-8,8S392,84.416,392,80z"/>
	<rect x="192" y="32" style="fill:#353535;" width="16" height="64"/>
	<rect x="192" style="fill:#353535;" width="16" height="16"/>
	<rect x="152" y="48" style="fill:#353535;" width="16" height="64"/>
	<rect x="152" y="16" style="fill:#353535;" width="16" height="16"/>
</g>
<g>
</g>
<g>
</g>
<g>
</g>
<g>
</g>
<g>
</g>
<g>
</g>
<g>
</g>
<g>
</g>
<g>
</g>
<g>
</g>
<g>
</g>
<g>
</g>
<g>
</g>
<g>
</g>
<g>
</g>
</svg>
