<svg height="512pt" viewBox="-83 0 512 512" width="512pt" xmlns="http://www.w3.org/2000/svg"><path d="m286.871094 0h-228.742188c-32.054687 0-58.128906 26.050781-58.128906 58.070312v395.859376c0 32.019531 26.074219 58.070312 58.128906 58.070312h228.742188c32.054687 0 58.128906-26.050781 58.128906-58.070312v-395.859376c0-32.019531-26.074219-58.070312-58.128906-58.070312zm-246.871094 58.070312c0-9.964843 8.132812-18.070312 18.128906-18.070312h95.371094v129.121094h-113.5zm0 151.050782h113.5v129.125h-113.5zm265 244.808594c0 9.964843-8.132812 18.070312-18.128906 18.070312h-228.742188c-9.996094 0-18.128906-8.105469-18.128906-18.070312v-75.683594h265zm0-115.683594h-111.5v-129.125h111.5zm0-169.125h-111.5v-129.121094h93.371094c9.996094 0 18.128906 8.105469 18.128906 18.070312zm-157.5 254.125c0-13.808594 11.191406-25 25-25s25 11.191406 25 25c0 13.804687-11.191406 25-25 25s-25-11.195313-25-25zm0 0"/></svg>