<?xml version="1.0" encoding="iso-8859-1"?>
<!-- Generator: Adobe Illustrator 19.0.0, SVG Export Plug-In . SVG Version: 6.00 Build 0)  -->
<svg version="1.1" id="Capa_1" xmlns="http://www.w3.org/2000/svg" xmlns:xlink="http://www.w3.org/1999/xlink" x="0px" y="0px"
	 viewBox="0 0 455.286 455.286" style="enable-background:new 0 0 455.286 455.286;" xml:space="preserve">
<path style="fill:#FFE05F;" d="M8.217,136.299l145.68-77.76l293.36,178.16l-145.12,82.16L8.217,136.299z"/>
<g>
	<path style="fill:#3F342B;" d="M451.737,229.819l-293.76-178.24c-2.475-1.429-5.525-1.429-8,0l-145.52,77.6
		c-3.956,1.968-5.568,6.77-3.6,10.726c0.65,1.308,1.647,2.412,2.88,3.194l294.16,182.56c1.273,0.789,2.742,1.205,4.24,1.2
		c1.374-0.004,2.724-0.362,3.92-1.04l145.2-82.24c3.8-2.255,5.052-7.163,2.798-10.962c-0.684-1.152-1.646-2.114-2.798-2.798
		L451.737,229.819z M302.617,309.819l-278.4-173.04l129.36-69.2l277.92,168.88L302.617,309.819z"/>
	<path style="fill:#3F342B;" d="M443.737,268.619l-141.04,80l-290.32-180.24c-3.756-2.386-8.734-1.276-11.12,2.48
		c-2.386,3.756-1.276,8.734,2.48,11.12l294.16,182.56c1.273,0.789,2.742,1.205,4.24,1.2c1.374-0.004,2.724-0.362,3.92-1.04
		l145.2-82.16c3.844-2.209,5.169-7.116,2.96-10.96c-2.209-3.844-7.116-5.169-10.96-2.96l0,0H443.737z"/>
	<path style="fill:#3F342B;" d="M443.737,307.579l-141.44,80l-289.92-180.32c-3.756-2.386-8.734-1.276-11.12,2.48
		c-2.386,3.756-1.276,8.734,2.48,11.12l294.16,182.72c1.273,0.789,2.742,1.205,4.24,1.2c1.374-0.004,2.724-0.362,3.92-1.04
		l145.2-82.32c3.451-2.759,4.012-7.793,1.254-11.244C450.419,307.558,446.917,306.521,443.737,307.579L443.737,307.579z"/>
	<path style="fill:#3F342B;" d="M188.297,229.419c1.972,0.017,3.881-0.695,5.36-2l9.04-8c3.005,2.826,6.367,5.247,10,7.2
		c9.244,5.236,20.83,3.771,28.48-3.6c2.689-2.345,4.565-5.482,5.36-8.96c0.785-3.924,0.648-7.978-0.4-11.84
		c-1.444-5.33-3.54-10.462-6.24-15.28v-0.48l13.28-11.92c0.388,2.169,0.388,4.391,0,6.56c-0.47,2.424-0.684,4.891-0.64,7.36
		c0.088,1.948,0.884,3.798,2.24,5.2c1.512,1.936,3.724,3.2,6.16,3.52c2.147,0.12,4.252-0.63,5.84-2.08
		c1.711-1.619,2.907-3.706,3.44-6c0.604-2.929,0.604-5.951,0-8.88c-0.667-3.778-1.937-7.424-3.76-10.8
		c-0.826-1.541-1.734-3.036-2.72-4.48l8.72-8c3.446-2.765,3.998-7.801,1.232-11.246c-2.765-3.446-7.801-3.998-11.246-1.232
		c-0.218,0.175-0.427,0.362-0.626,0.559l-8.56,8c-2.678-2.405-5.697-4.401-8.96-5.92c-4.262-2.007-9-2.783-13.68-2.24
		c-4.133,0.51-8.012,2.269-11.12,5.04c-3.217,2.707-5.348,6.486-6,10.64c-0.56,4.367-0.095,8.804,1.36,12.96
		c1.189,3.438,2.578,6.804,4.16,10.08l-16,14.32c-0.193-0.55-0.353-1.111-0.48-1.68c-0.603-3.853-0.189-7.796,1.2-11.44
		c0.656-1.716,1.034-3.525,1.12-5.36c-0.071-1.78-0.815-3.466-2.08-4.72c-1.435-1.775-3.56-2.852-5.84-2.96
		c-2.174-0.142-4.312,0.609-5.92,2.08c-2.67,2.541-4.439,5.883-5.04,9.52c-0.788,4.79-0.291,9.704,1.44,14.24
		c1.197,3.401,2.838,6.629,4.88,9.6l-9.2,8c-3.314,2.922-3.631,7.978-0.709,11.291c1.535,1.74,3.749,2.728,6.069,2.709
		L188.297,229.419z M233.817,161.979c1.887-1.591,4.482-2.049,6.8-1.2c0.803,0.275,1.58,0.623,2.32,1.04l-10.48,9.76
		c-0.375-1.224-0.616-2.484-0.72-3.76C231.363,165.643,232.151,163.429,233.817,161.979L233.817,161.979z M226.297,198.219
		c0.582,1.479,1.036,3.004,1.36,4.56c0.487,3.035-0.707,6.096-3.12,8c-2.086,1.562-4.803,2.01-7.28,1.2
		c-1.597-0.404-3.113-1.081-4.48-2L226.297,198.219z"/>
</g>
<g>
</g>
<g>
</g>
<g>
</g>
<g>
</g>
<g>
</g>
<g>
</g>
<g>
</g>
<g>
</g>
<g>
</g>
<g>
</g>
<g>
</g>
<g>
</g>
<g>
</g>
<g>
</g>
<g>
</g>
</svg>
