<svg height="512pt" viewBox="-4 0 512 512.00009" width="512pt" xmlns="http://www.w3.org/2000/svg"><g fill-rule="evenodd"><path d="m154.339844 352.625c-19.890625-16.121094-22.953125-45.308594-6.828125-65.199219 11.109375-13.742187 28.453125-19.4375 44.691406-16.378906l62.9375-77.636719c-18.304687 6.601563-35.734375-10.113281-48.375-21.390625-24.539063-19.15625-62.484375-.679687-69.792969 34.199219-4.136718 19.691406-26.015625 47.429688-43.527344 50.746094-23.238281 6.292968-44.207031 19.46875-59.652343 39.214844-43.640625 55.933593-23.179688 134.195312 30.09375 175.761718 24.824219 19.382813 55.683593 29.894532 85.976562 29.949219h.34375c34.515625-.054687 68.265625-13.742187 91.472657-43.492187 15.445312-19.75 23.09375-43.296876 23.578124-67.378907 1.019532-14.539062 2.917969-31.480469 35.960938-58.058593 46.132812-37.089844 32.191406-87.1875-.484375-115.945313l-72.089844 88.914063c3.203125 13.488281.3125 28.25-9.097656 39.867187-16.125 19.890625-45.3125 22.949219-65.207031 6.828125zm0 0" fill="#ffd89e"/><path d="m147.511719 287.425781c-16.125 19.890625-13.0625 49.074219 6.828125 65.199219 19.894531 16.121094 49.082031 13.058594 65.207031-6.832031 9.410156-11.617188 12.300781-26.378907 9.097656-39.867188-2.265625-9.632812-7.625-18.613281-15.925781-25.328125-6.179688-5.015625-13.234375-8.160156-20.515625-9.550781-16.238281-3.058594-33.582031 2.636719-44.691406 16.378906zm0 0" fill="#b3b0b5"/><path d="m192.203125 271.046875c7.28125 1.390625 14.335937 4.535156 20.515625 9.550781 8.300781 6.714844 13.660156 15.695313 15.925781 25.332032l72.089844-88.917969 59-72.820313-39.078125-31.648437-65.515625 80.867187zm0 0" fill="#ffc15a"/><path d="m320.65625 112.542969 39.078125 31.648437.9375.765625c5.410156 4.363281 13.429687 3.542969 17.792969-1.867187l46.871094-57.832032 12.894531-15.898437c4.394531-5.410156 3.542969-13.429687-1.871094-17.820313l-40.917969-33.152343c-5.414062-4.394531-13.402344-3.542969-17.796875 1.871093l-59.765625 73.726563c-4.390625 5.410156-3.539062 13.429687 1.871094 17.824219zm0 0" fill="#b3b0b5"/><path d="m484.792969 291.449219-97.65625 19.464843c-5.042969.992188-9.152344 6.207032-9.152344 11.589844v23.460938c0 5.382812 4.109375 8.953125 9.152344 7.960937l97.65625-19.464843c4.25-.851563 7.847656-4.703126 8.839843-9.125.199219-.820313.28125-1.640626.28125-2.464844v-23.460938c.003907-5.382812-4.105468-8.953125-9.121093-7.960937zm0 0" fill="#bdd9ff"/><path d="m377.984375 453.128906c0-13.859375-13.175781-24.371094-29.472656-23.519531-16.265625.878906-29.46875 12.808594-29.46875 26.664063 0 13.855468 13.203125 24.394531 29.46875 23.515624 16.296875-.847656 29.472656-12.777343 29.472656-26.660156zm0 0" fill="#60a4ff"/><path d="m434.972656 406.207031c0 13.855469 13.175782 24.394531 29.472656 23.515625 16.265626-.847656 29.472657-12.804687 29.472657-26.664062 0-1.160156-.085938-2.320313-.285157-3.457032-1.984374-12.097656-14.308593-20.851562-29.1875-20.058593-16.296874.878906-29.472656 12.804687-29.472656 26.664062zm0 0" fill="#60a4ff"/></g><path d="m497.480469 285.113281c-4.027344-3.304687-9.363281-4.601562-14.660157-3.554687l-97.636718 19.464844c-9.695313 1.910156-17.285156 11.34375-17.285156 21.480468v100.730469c-6.003907-2.75-12.859376-4.0625-19.910157-3.699219-.007812 0-.011719.003906-.019531.003906-21.511719 1.160157-39.011719 17.640626-39.011719 36.730469 0 8.75 3.609375 16.988281 10.167969 23.199219 7.082031 6.710938 17.007812 10.457031 27.515625 10.457031.796875 0 1.59375-.023437 2.398437-.066406 21.519532-1.121094 39.027344-17.601563 39.027344-36.734375v-89.15625c.347656-.046875.695313-.082031 1.042969-.152344l94.722656-18.882812v28.226562c-6.015625-2.757812-12.875-4.066406-19.929687-3.6875-21.511719 1.160156-39.011719 17.636719-39.011719 36.734375 0 8.75 3.609375 16.992188 10.160156 23.203125 7.082031 6.707032 17.007813 10.449219 27.519531 10.449219.796876 0 1.597657-.023437 2.398438-.066406 21.523438-1.125 39.03125-17.601563 39.03125-36.734375v-103.648438c0-5.679687-2.375-10.890625-6.519531-14.296875zm-149.511719 184.605469c-5.898438.320312-11.355469-1.460938-14.972656-4.890625-1.765625-1.671875-3.871094-4.515625-3.871094-8.554687 0-8.410157 9.121094-16.003907 19.921875-16.59375 5.929687-.3125 11.390625 1.480468 15.003906 4.910156 1.753907 1.667968 3.847657 4.5 3.847657 8.539062 0 8.429688-9.117188 16.027344-19.929688 16.589844zm134.789062-145.136719-94.6875 18.875v-20.953125c0-.628906.671876-1.515625 1.078126-1.707031l94.683593-18.875v20.949219c0 .621094-.664062 1.511718-1.074219 1.710937zm-18.855468 95.070313c-5.90625.320312-11.367188-1.460938-14.976563-4.882813-1.765625-1.671875-3.867187-4.515625-3.867187-8.566406 0-8.410156 9.125-16.011719 19.925781-16.59375h.003906c.449219-.023437.898438-.035156 1.34375-.035156 5.378907 0 10.289063 1.761719 13.628907 4.929687 1.765624 1.671875 3.871093 4.511719 3.871093 8.554688 0 8.429687-9.121093 16.03125-19.929687 16.59375zm0 0"/><path d="m109.34375 356.546875c-4.328125-3.503906-10.679688-2.839844-14.1875 1.488281-3.503906 4.324219-2.839844 10.675782 1.488281 14.183594l50.214844 40.6875c1.867187 1.515625 4.113281 2.25 6.34375 2.25 2.933594 0 5.847656-1.277344 7.839844-3.734375 3.507812-4.328125 2.839843-10.679687-1.484375-14.183594zm0 0"/><path d="m340.839844 279.089844c.496094-22.242188-9.054688-44.734375-26.453125-62.933594l47.984375-59.195312c2.046875.582031 4.152344.890624 6.257812.890624 6.628906 0 13.199219-2.875 17.671875-8.414062l8.390625-10.351562 8.394532 6.816406c1.867187 1.515625 4.117187 2.253906 6.347656 2.253906 2.933594 0 5.84375-1.273438 7.835937-3.726562 3.511719-4.324219 2.851563-10.675782-1.472656-14.1875l-8.402344-6.824219 19.429688-23.96875 8.398437 6.8125c1.867188 1.515625 4.117188 2.253906 6.347656 2.253906 2.933594 0 5.84375-1.273437 7.835938-3.730469 3.511719-4.324218 2.847656-10.675781-1.476562-14.183594l-8.40625-6.820312 6.539062-8.066406c3.824219-4.710938 5.578125-10.644532 4.941406-16.703125-.636718-6.050781-3.582031-11.484375-8.292968-15.308594l-40.914063-33.148437c-8.90625-7.222657-21.664063-6.554688-29.832031 1.078124l-11.578125-9.382812c-4.324219-3.507812-10.675781-2.839844-14.183594 1.484375-3.507813 4.328125-2.839844 10.675781 1.488281 14.183594l11.386719 9.230469-20.464844 25.246093-10.675781-8.636719c-4.332031-3.503906-10.679688-2.835937-14.183594 1.496094-3.503906 4.328125-2.832031 10.675782 1.496094 14.179688l10.664062 8.628906-15.863281 19.566406c-5.914062 7.285156-6.558593 17.15625-2.425781 24.980469l-58.3125 71.949219c-11.222656 1.980468-23.816406-9.296875-34.0625-18.484375l-1.769531-1.582031c-.164063-.144532-.335938-.289063-.507813-.425782-13.097656-10.222656-30.0625-12.625-46.539062-6.597656-19.742188 7.222656-34.8125 25.105469-39.332032 46.675781-3.550781 16.90625-23.144531 40.566407-35.535156 42.914063-.253906.046875-.507812.105468-.757812.171875-26.175782 7.085937-48.636719 21.863281-64.96875 42.746093-22.3125 28.597657-30.5625 64.621094-23.234375 101.441407 6.8125 34.230469 26.886719 66.480469 55.078125 88.472656 27.003906 21.078125 59.972656 32.109375 92.203125 32.109375 18.25 0 36.261719-3.535156 52.820312-10.789062 5.101563-2.234376 7.425781-8.179688 5.191407-13.28125-2.234376-5.101563-8.183594-7.425782-13.28125-5.191407-39.113282 17.128907-87.988282 9.769531-124.527344-18.746093-46.167969-36.023438-70.1328128-108.050782-28.355469-161.601563 13.550781-17.324219 32.222656-29.632813 54.015625-35.601563 21.882812-4.488281 46.3125-35.757812 51.089844-58.503906 3.105468-14.8125 13.269531-27.027344 26.523437-31.875 5.707031-2.089844 16.765625-4.40625 26.949219 3.363282l1.472656 1.320312c8.464844 7.589844 19.667969 17.621094 32.609375 21.875l-46.519531 57.398438c-17.863281-1.351563-36.085938 5.769531-48.195312 20.707031-9.496094 11.714843-13.859376 26.421875-12.289063 41.414062 1.570313 14.992188 8.886719 28.476563 20.601563 37.96875 10.433593 8.457031 22.992187 12.566407 35.480468 12.566407 16.449219 0 32.765625-7.136719 43.90625-20.878907 9.496094-11.710937 13.859375-26.417969 12.289063-41.414062-.070313-.691407-.167969-1.375-.265625-2.058594l62.148437-76.679687c12.457031 13.910156 19.476563 30.773437 19.125 46.648437-.390625 17.390625-9.0625 33.019531-25.78125 46.460937-34.375 27.652344-38.394531 46.625-39.699219 65.210938-.011718.167969-.019531.332031-.023437.5-.234375 11.648438-2.285156 22.945312-6.097656 33.582031-1.878907 5.242188.847656 11.015625 6.09375 12.894531 1.125.402344 2.269531.59375 3.398437.59375 4.140625 0 8.019532-2.566406 9.496094-6.6875 4.519531-12.613281 6.964844-25.976562 7.273438-39.71875.867187-12.351562 2.039062-26.398437 32.199218-50.660156 21.269532-17.097656 32.785156-38.441406 33.304688-61.726562zm-15.125-178.753906 59.761718-73.722657c.503907-.625 1.261719-.949219 2.019532-.949219.566406 0 1.132812.183594 1.597656.558594l40.914062 33.148438c.714844.578125.894532 1.347656.9375 1.753906.039063.398438.027344 1.179688-.546874 1.886719l-12.804688 15.792969c-.027344.035156-.058594.0625-.085938.097656-.03125.035156-.050781.074218-.082031.109375l-46.792969 57.726562c-.003906.003907-.011718.011719-.015624.019531-.863282 1.070313-2.523438 1.230469-3.597657.363282l-.839843-.679688c-.03125-.027344-.058594-.058594-.09375-.085937-.03125-.023438-.070313-.046875-.101563-.074219l-39.878906-32.308594c-1.09375-.882812-1.273438-2.550781-.390625-3.636718zm-114 239.109374c-12.597656 15.539063-35.484375 17.9375-51.023438 5.34375-7.527344-6.101562-12.230468-14.769531-13.242187-24.402343-1.007813-9.632813 1.796875-19.085938 7.898437-26.613281 7.160156-8.832032 17.648438-13.417969 28.21875-13.417969 8.023438 0 16.097656 2.640625 22.800782 8.074219 7.53125 6.101562 12.230468 14.769531 13.242187 24.402343 1.011719 9.636719-1.796875 19.085938-7.894531 26.613281zm7.351562-66.683593c-3.160156-2.5625-6.523437-4.714844-10.015625-6.488281l53.578125-66.109376c.238282-.265624.464844-.542968.671875-.828124l58.84375-72.613282 23.402344 18.960938-114.207031 140.902344c-3.261719-5.183594-7.375-9.855469-12.273438-13.824219zm0 0"/><path d="m382.261719 76.222656c1.886719 1.574219 4.175781 2.34375 6.457031 2.34375 2.886719 0 5.753906-1.230468 7.746094-3.621094l.285156-.339843c3.570312-4.273438 2.996094-10.632813-1.277344-14.203125-4.273437-3.566406-10.632812-3-14.203125 1.277344l-.285156.339843c-3.570313 4.273438-3 10.632813 1.277344 14.203125zm0 0"/><path d="m239.902344 459.816406c-4.347656-3.480468-10.695313-2.773437-14.175782 1.574219l-.113281.144531c-3.476562 4.347656-2.773437 10.695313 1.578125 14.171875 1.859375 1.488281 4.082032 2.210938 6.292969 2.210938 2.957031 0 5.886719-1.292969 7.878906-3.785157l.113281-.140624c3.480469-4.351563 2.773438-10.695313-1.574218-14.175782zm0 0"/></svg>