<svg height="511pt" viewBox="0 0 511 511.99995" width="511pt" xmlns="http://www.w3.org/2000/svg"><path d="m414.058594 12.277344c-149.03125 110.625-113.3125 135.636718-189.484375 211.808594-76.171875 76.171874-101.183594 40.453124-211.808594 189.484374-8.183594 11.027344-5.578125 26.65625 5.761719 34.402344l1.96875 1.34375c4.421875 3.019532 9.710937 4.417969 15.058594 4.175782 10.457031-.472657 32.769531 3.222656 68.464843 31.710937 51.925781 41.433594 111.335938 7.195313 138.011719-19.480469 29.226562-23.855468 69.277344-79.515625 33.28125-135.347656-12.335938-19.136719-18.878906-34.339844-22.148438-46.0625-5.355468-19.203125 12.433594-36.992188 31.636719-31.632812 11.71875 3.269531 26.925781 9.8125 46.0625 22.148437 55.832031 35.992187 111.492188-4.054687 135.347657-33.28125 26.675781-26.679687 60.910156-86.089844 19.476562-138.011719-28.484375-35.699218-32.183594-58.011718-31.710938-68.46875.242188-5.347656-1.152343-10.636718-4.171874-15.054687l-1.34375-1.96875c-7.746094-11.34375-23.375-13.949219-34.402344-5.765625zm0 0" fill="#423e4f"/><path d="m103.457031 359.800781 69.035157 28.855469 30.992187 71.171875c-51.332031 30.945313-101.429687-11.152344-128.097656-37.199219-7.796875-7.632812-8.621094-19.902344-1.886719-28.476562 7.335938-9.332032 17.316406-21.425782 29.957031-34.351563zm0 0" fill="#ff6f7f"/><path d="m83.023438 387.839844c-.84375-.828125-1.632813-1.683594-2.386719-2.558594-2.605469 3.160156-4.988281 6.136719-7.136719 8.871094-6.734375 8.574218-5.914062 20.84375 1.886719 28.476562 25.453125 24.863282 72.257812 64.34375 121.105469 40.96875-42.945313-9.945312-86.394532-49.128906-113.46875-75.757812zm0 0" fill="#f8485e"/><path d="m219.671875 298.246094c19.558594 20.375 55.238281 67.546875 23.433594 120.839844l-70.613281-30.429688-26.070313-66.25c14.535156-10.59375 30.863281-20.550781 49.007813-28.820312 8.242187-3.757813 17.964843-1.882813 24.242187 4.660156zm0 0" fill="#7ece5c"/><path d="m146.421875 322.40625 96.683594 96.683594c-4.742188 7.957031-10.992188 16.035156-19.011719 24.1875-6.855469 6.960937-13.742188 12.414062-20.609375 16.550781l-100.027344-100.027344c11.945313-12.230469 26.257813-25.230469 42.964844-37.394531zm0 0" fill="#f8e86a"/><path d="m360.289062 102.96875 28.855469 69.035156 71.167969 30.992188c30.949219-51.332032-11.148438-101.433594-37.195312-128.097656-7.632813-7.796876-19.902344-8.621094-28.476563-1.886719-9.332031 7.335937-21.425781 17.316406-34.351563 29.957031zm0 0" fill="#7ece5c"/><path d="m298.734375 219.179688c20.378906 19.5625 67.546875 55.242187 120.839844 23.4375l-30.429688-70.613282-66.25-26.070312c-10.59375 14.535156-20.550781 30.863281-28.820312 49.007812-3.757813 8.242188-1.882813 17.964844 4.660156 24.238282zm0 0" fill="#ff6f7f"/><path d="m307.84375 185.863281c-2.214844-2.152343-4.160156-4.46875-5.835938-6.867187-2.777343 5.148437-5.433593 10.460937-7.929687 15.945312-3.761719 8.242188-1.890625 17.96875 4.65625 24.242188 18.710937 17.960937 60.011719 49.503906 107.902344 29.921875-40.433594-10.847657-78.195313-43.195313-98.792969-63.242188zm0 0" fill="#f8485e"/><path d="m322.894531 145.933594 96.683594 96.683594c7.957031-4.742188 16.035156-10.992188 24.1875-19.011719 6.960937-6.855469 12.414063-13.742188 16.550781-20.609375l-100.027344-100.027344c-12.230468 11.945312-25.230468 26.257812-37.394531 42.964844zm0 0" fill="#f8e86a"/><path d="m461.488281 35.40625c.320313-7.125-1.570312-13.914062-5.472656-19.625-5.339844-7.8125-12.535156-13.703125-22.25-15.332031-8.585937-1.445313-17.167969.621093-24.160156 5.8125-14.480469 10.746093-27.847657 21.164062-39.730469 30.960937-3.195312 2.636719-3.648438 7.363282-1.011719 10.558594 2.632813 3.195312 7.359375 3.648438 10.554688 1.015625 11.6875-9.636719 24.851562-19.894531 39.125-30.492187 3.6875-2.734376 8.210937-3.824219 12.738281-3.0625 5.597656.9375 9.273438 4.5 12.347656 9 2.054688 3.007812 3.046875 6.632812 2.875 10.488281-.617187 13.6875 4.664063 37.546875 33.339844 73.484375 38.226562 47.902344 6.09375 103.015625-18.917969 128.03125-.179687.175781-.347656.363281-.507812.558594-22.367188 27.40625-73.964844 64.929687-125.476563 31.722656-17.5-11.285156-33.6875-19.042969-48.109375-23.066406-11.660156-3.253907-23.75-.066407-32.34375 8.527343-8.59375 8.589844-11.78125 20.683594-8.527343 32.34375 4.023437 14.421875 11.785156 30.605469 23.066406 48.109375 33.207031 51.511719-4.3125 103.109375-31.71875 125.476563-7.003906 5.714843-13.359375 12.035156-20.890625 17.09375-9.164063 6.152343-19.074219 11.242187-29.53125 14.8125-3.917969 1.335937-6.011719 5.597656-4.675781 9.519531 1.316406 3.851562 5.679687 5.988281 9.523437 4.675781 27.929687-9.535156 47.832031-27.253906 55.351563-34.722656 9.28125-7.621094 31.375-28.109375 43.066406-58.5625 11.523437-30.019531 8.578125-59.902344-8.515625-86.417969-10.46875-16.238281-17.609375-31.046875-21.226563-44.015625-1.777344-6.375-.027344-12.992187 4.6875-17.707031 4.710938-4.710938 11.332032-6.464844 17.707032-4.6875 12.96875 3.621094 27.777343 10.761719 44.015624 21.226562 26.515626 17.097657 56.398438 20.039063 86.414063 8.515626 30.457031-11.691407 50.941406-33.785157 58.566406-43.066407 8.464844-8.519531 28.382813-31.125 36.945313-62.601562 8.441406-31.027344 2.503906-60.460938-17.175782-85.121094-9.378906-11.75-31.074218-41.449219-30.082031-63.453125zm0 0"/><path d="m347.125 56.816406c-43.285156 39.117188-59.15625 65.765625-74.5 91.535156-12.949219 21.742188-25.175781 42.277344-53.335938 70.4375-28.164062 28.160157-48.695312 40.386719-70.4375 53.335938-35.609374 21.203125-72.429687 43.132812-142.089843 136.980469-5.191407 6.992187-7.257813 15.574219-5.8125 24.160156 1.621093 9.652344 7.445312 16.863281 15.332031 22.25 5.710938 3.902344 12.5 5.792969 19.625 5.472656 22-.984375 51.703125 20.707031 63.453125 30.078125 17.417969 13.902344 36.894531 20.933594 57.953125 20.933594 5.199219 0 11.390625-1.207031 11.117188-7.882812-.171876-4.136719-3.65625-7.355469-7.800782-7.1875-18.863281.777343-36.324218-5.144532-51.917968-17.585938-35.933594-28.675781-59.792969-33.960938-73.480469-33.339844-3.871094.167969-7.480469-.820312-10.488281-2.875-4.535157-3.097656-8.054688-6.699218-9.003907-12.347656-.757812-4.527344.328125-9.050781 3.066407-12.738281 67.871093-91.433594 103.378906-112.582031 137.71875-133.03125 21.578124-12.851563 43.886718-26.136719 73.367187-55.621094 29.484375-29.484375 42.773437-51.789063 55.621094-73.363281 15.457031-25.960938 30.058593-50.480469 71.667969-88.082032 3.074218-2.777343 3.3125-7.519531.539062-10.59375-2.777344-3.074218-7.523438-3.3125-10.59375-.535156zm0 0"/><path d="m192.332031 286.769531c-17.214843 7.84375-34.140625 17.796875-50.3125 29.582031-15.136719 11.015626-29.90625 23.871094-43.910156 38.210938-10.308594 10.542969-20.285156 21.980469-30.492187 34.960938-9.109376 11.601562-8.015626 28.140624 2.542968 38.476562 12.722656 12.425781 51.433594 50.238281 95.429688 50.238281 14.535156 0 28.59375-4.03125 41.785156-11.988281 7.566406-4.558594 14.996094-10.515625 22.082031-17.710938 8.15625-8.292968 14.917969-16.90625 20.105469-25.601562 15.03125-25.1875 17.785156-51.800781 8.179688-79.097656-7.699219-21.890625-22.003907-39.699219-32.640626-50.777344-8.371093-8.71875-21.777343-11.304688-32.769531-6.292969zm-26.742187 176.46875c-9.371094 0-37.886719 0-84.941406-45.964843-5.078126-4.96875-5.609376-12.914063-1.238282-18.480469 8.121094-10.332031 16.082032-19.636719 24.179688-28.265625l87.363281 87.363281c-8.199219 3.554687-16.695313 5.347656-25.363281 5.347656zm53.175781-25.21875c-4.644531 4.71875-9.425781 8.808594-14.261719 12.207031l-90.433594-90.429687c10.226563-10.054687 20.832032-19.265625 31.648438-27.5l87.847656 87.847656c-4.078125 6.023438-9.039062 12.019531-14.800781 17.875zm22.46875-31.417969-83.199219-83.199218c13.148438-8.992188 26.742188-16.707032 40.519532-22.984375 5.296874-2.414063 11.695312-1.171875 15.71875 3.027343 19.273437 20.074219 47.082031 59.167969 26.960937 103.15625zm0 0"/><path d="m355.054688 97.617188c-14.332032 13.992187-27.183594 28.761718-38.207032 43.90625-11.78125 16.164062-21.734375 33.09375-29.578125 50.308593-5.078125 11.128907-2.546875 24.296875 6.285157 32.765625 32.898437 31.582032 62.875 38.210938 82.226562 38.210938 16.335938 0 32.367188-4.625 47.65625-13.746094 8.6875-5.179688 17.300781-11.941406 25.605469-20.105469 7.191406-7.085937 13.152343-14.515625 17.714843-22.09375 14.84375-24.628906 15.921876-51.617187 3.195313-80.210937-10.65625-23.949219-28.761719-43.992188-41.460937-56.996094-10.164063-10.402344-27.035157-11.515625-38.476563-2.535156-12.980469 10.207031-24.414063 20.179687-34.960937 30.496094zm20.726562 150.191406c-30.074219 0-55.664062-18.507813-71.839844-34.035156-4.242187-4.066407-5.457031-10.382813-3.023437-15.71875 6.277343-13.777344 13.988281-27.371094 22.984375-40.519532l83.199218 83.203125c-10.230468 4.695313-20.730468 7.070313-31.320312 7.070313zm62.742188-29.546875c-5.863282 5.765625-11.855469 10.726562-17.878907 14.804687l-87.847656-87.847656c8.230469-10.816406 17.445313-21.421875 27.496094-31.648438l90.433593 90.433594c-3.398437 4.835938-7.488281 9.613282-12.203124 14.257813zm-39.234376-139.347657c5.503907-4.328124 13.597657-3.757812 18.480469 1.230469 11.886719 12.167969 28.804688 30.859375 38.484375 52.605469 9.257813 20.8125 9.984375 39.789062 2.152344 57.71875l-87.378906-87.378906c8.628906-8.097656 17.929687-16.054688 28.261718-24.175782zm0 0"/></svg>