<svg height="512" viewBox="0 0 64 64" width="512" xmlns="http://www.w3.org/2000/svg"><path d="m22 19 5-11-15.3-.75-.7 11.75" fill="#46b29d"/><path d="m22.26 19 4.55-10.67h.01l2.27-5.33 23.91 10.2-2.53 5.93z" fill="#46b29d"/><path d="m57 44v9a8 8 0 0 1 -8 8h-42a4 4 0 0 1 -4-4v-34a4 4 0 0 1 4-4h42a8 8 0 0 1 8 8v9" fill="#f1bf37"/><rect fill="#ce971d" height="8" rx="2" width="12" x="49" y="36"/><circle cx="53" cy="40" r="2"/><path d="m59 35h-1v-8a9.011 9.011 0 0 0 -6.16-8.534l2.08-4.873a1 1 0 0 0 -.527-1.313l-23.911-10.2a1 1 0 0 0 -1.312.528l-1.991 4.675-14.408-1.03a.983.983 0 0 0 -.726.241 1 1 0 0 0 -.342.685l-.773 10.821h-2.93a5.006 5.006 0 0 0 -5 5v34a5.006 5.006 0 0 0 5 5h42a9.01 9.01 0 0 0 9-9v-8h1a3 3 0 0 0 3-3v-4a3 3 0 0 0 -3-3zm-29.382-30.688 22.069 9.416-1.841 4.315c-.279-.026-.56-.043-.846-.043h-25.227l3.9-9.152a.931.931 0 0 0 .064-.126zm-16.992 4.006 12.715.907-3.741 8.775h-9.666zm43.374 44.682a6.956 6.956 0 0 1 -.3 2h-2.7a1 1 0 0 0 0 2h1.736a6.993 6.993 0 0 1 -5.736 3h-42a3 3 0 0 1 -3-3h3a1 1 0 0 0 0-2h-3v-14h38a1 1 0 0 0 0-2h-38v-14h3a1 1 0 0 0 0-2h-3a3 3 0 0 1 3-3h42a6.993 6.993 0 0 1 5.736 3h-1.736a1 1 0 0 0 0 2h2.7a6.956 6.956 0 0 1 .3 2v8h-5a3 3 0 0 0 -3 3v1h-2a1 1 0 0 0 0 2h2v1a3 3 0 0 0 3 3h5zm4-11a1 1 0 0 1 -1 1h-8a1 1 0 0 1 -1-1v-4a1 1 0 0 1 1-1h8a1 1 0 0 1 1 1z"/><path d="m14 55h-3a1 1 0 0 0 0 2h3a1 1 0 0 0 0-2z"/><path d="m21 55h-3a1 1 0 0 0 0 2h3a1 1 0 0 0 0-2z"/><path d="m28 55h-3a1 1 0 0 0 0 2h3a1 1 0 0 0 0-2z"/><path d="m35 55h-3a1 1 0 0 0 0 2h3a1 1 0 0 0 0-2z"/><path d="m42 55h-3a1 1 0 0 0 0 2h3a1 1 0 0 0 0-2z"/><path d="m49 55h-3a1 1 0 0 0 0 2h3a1 1 0 0 0 0-2z"/><path d="m14 23h-3a1 1 0 0 0 0 2h3a1 1 0 0 0 0-2z"/><path d="m21 23h-3a1 1 0 0 0 0 2h3a1 1 0 0 0 0-2z"/><path d="m28 23h-3a1 1 0 0 0 0 2h3a1 1 0 0 0 0-2z"/><path d="m35 23h-3a1 1 0 0 0 0 2h3a1 1 0 0 0 0-2z"/><path d="m42 23h-3a1 1 0 0 0 0 2h3a1 1 0 0 0 0-2z"/><path d="m46 25h3a1 1 0 0 0 0-2h-3a1 1 0 0 0 0 2z"/></svg>