<svg height="512" viewBox="0 0 53 60" width="512" xmlns="http://www.w3.org/2000/svg"><g id="038---Watch-Making" fill="none"><g id="Icons" transform="translate(1 1)"><path id="Shape" d="m51 27v4c-.0032948 1.1032019-.8967981 1.9967052-2 2h-3.39c.5357144-2.6397614.5357144-5.3602386 0-8h3.39c1.1032019.0032948 1.9967052.8967981 2 2z" fill="#f57c00"/><path id="Shape" d="m39.04 44.62-2.51 11.04c-.3060118 1.3670871-1.5190826 2.3392054-2.92 2.34h-17.22c-1.4009174-.0007946-2.6139882-.9729129-2.92-2.34l-2.51-11.04c7.9854723 7.1737241 20.0945277 7.1737241 28.08 0z" fill="#783e22"/><path id="Shape" d="m39.04 13.38c-6.234168-5.60485883-15.2045877-6.96496628-22.82-3.46-.0027048-.32835916-.0334836-.65588565-.092-.979l1.611-1.271c.2706635-.20900684.3404894-.5883082.162-.88l-1.551-2.58c-.1865543-.29415924-.5526124-.41895176-.88-.3l-1.95.7c-.1569092-.12201465-.3204961-.23519012-.49-.339l.44-1.93c.3056093-1.36748446 1.5187827-2.34010052 2.92-2.341h17.22c1.4009174.00079462 2.6139882.97291293 2.92 2.34z" fill="#783e22"/><path id="Shape" d="m35.45 10.78c-5.8946613-3.37644471-13.0574722-3.69677843-19.23-.86-.0027048-.32835916-.0334836-.65588565-.092-.979l1.611-1.271c.2706635-.20900684.3404894-.5883082.162-.88l-1.551-2.58c-.1865543-.29415924-.5526124-.41895176-.88-.3l-1.95.7c-.1569092-.12201465-.3204961-.23519012-.49-.339l.44-1.93c.3056093-1.36748446 1.5187827-2.34010052 2.92-2.341h14.22c1.4009174.00079462 2.6139882.97291293 2.92 2.34z" fill="#a0522d"/><path id="Shape" d="m35.45 47.21-1.92 8.45c-.3060118 1.3670871-1.5190826 2.3392054-2.92 2.34h-14.22c-1.4009174-.0007946-2.6139882-.9729129-2.92-2.34l-2.51-11.04c6.747375 6.0615649 16.6239595 7.1060873 24.49 2.59z" fill="#a0522d"/><path id="Shape" d="m46 29c-.0023722 8.8170188-5.5121456 16.6936378-13.793792 19.719222s-17.5713527.5557489-23.25690513-6.1832659-6.55605018-16.3119434-2.17930287-23.9659561c.1221937.264288.38784176.4325188.679.43h3.1c.3493514.0094001.653736-.2364816.718-.58l.341-1.97c.6854525-.2567792 1.3291006-.6136501 1.91-1.059l1.95.7c.3273876.1189518.6934457-.0058408.88-.3l1.552-2.581c.1784894-.2916918.1086635-.6709932-.162-.88l-1.611-1.271c.0580726-.3769538.0888194-.7576125.092-1.139 6.5026214-2.99326384 14.0820958-2.46795068 20.1096184 1.393744 6.0275225 3.8616947 9.6727428 10.5277847 9.6713816 17.686256z" fill="#fec108"/><path id="Shape" d="m43 29c.0054626 11.0169543-8.5105597 20.1618521-19.5 20.94-7.1972295-.523196-13.62259169-4.7027511-17.01835507-11.0700612-3.39576338-6.36731-3.28689353-14.0316501.28835507-20.2999388.1221937.264288.38784176.4325188.679.43h3.1c.3493514.0094001.653736-.2364816.718-.58l.341-1.97c.6854525-.2567792 1.3291006-.6136501 1.91-1.059l1.95.7c.3273876.1189518.6934457-.0058408.88-.3l1.552-2.581c.1784894-.2916918.1086635-.6709932-.162-.88l-1.611-1.271c.0580726-.3769538.0888194-.7576125.092-1.139 2.301652-1.06397462 4.7797317-1.694512 7.31-1.86 10.9754912.79782654 19.4721771 9.9355494 19.471 20.94z" fill="#ffdc00"/><path id="Shape" d="m42 29c.000937 7.929664-5.4826411 14.805834-13.2137053 16.5694152-7.7310642 1.7635813-15.6541324-2.0543149-19.09211219-9.1999337-3.43797976-7.1456187-1.47680469-15.7191323 4.72581749-20.6594815l1.05.381c.3273876.1189518.6934457-.0058408.88-.3l1.25-2.091c2.3045445-1.124152 4.8358996-1.7056795 7.4-1.7 9.3781246.0258208 16.9741792 7.6218754 17 17z" fill="#00838f"/><path id="Shape" d="m39 29c-.0108726 8.8136856-6.74998 16.1603107-15.53 16.93-6.9057282-.6423415-12.7299155-5.4130097-14.71960016-12.0570175s.25363806-13.8306576 5.66960016-18.1629825l1.05.381c.3273876.1189518.6934457-.0058408.88-.3l1.25-2.091c1.8589255-.9145551 3.8746499-1.4676916 5.94-1.63 8.7431372.8221663 15.4331861 8.1483324 15.46 16.93z" fill="#00bcd4"/><path id="Shape" d="m15.128 30.525c-.1705055-1.0095178-.1705055-2.0404822 0-3.05l-2.228-1.839c-.3775679-.3105367-.4752704-.8485351-.231-1.272l2.153-3.728c.2442543-.4236319.7590513-.608485 1.217-.437l2.7 1.012c.7996743-.6420677 1.6934906-1.1571083 2.65-1.527l.475-2.848c.0799776-.4810832.4953171-.834312.983-.836h4.306c.488818.000225.9058339.3538004.986.836l.475 2.848c.9565094.3698917 1.8503257.8849323 2.65 1.527l2.7-1.012c.4579487-.171485.9727457.0133681 1.217.437l2.153 3.728c.2442704.4234649.1465679.9614633-.231 1.272l-2.232 1.839c.1705055 1.0095178.1705055 2.0404822 0 3.05l2.229 1.839c.3775679.3105367.4752704.8485351.231 1.272l-2.153 3.728c-.2442543.4236319-.7590513.608485-1.217.437l-2.7-1.012c-.7996743.6420677-1.6934906 1.1571083-2.65 1.527l-.475 2.848c-.0801661.4821996-.497182.835775-.986.836h-4.303c-.488818-.000225-.9058339-.3538004-.986-.836l-.475-2.848c-.9565094-.3698917-1.8503257-.8849323-2.65-1.527l-2.7 1.012c-.4579487.171485-.9727457-.0133681-1.217-.437l-2.153-3.728c-.2442704-.4234649-.1465679-.9614633.231-1.272z" fill="#02a9f4"/><path id="Shape" d="m1.875 11.056c-.12399697-.69854-.12399697-1.41345996 0-2.112l-1.612-1.273c-.27119761-.20835753-.3426538-.58716141-.166-.88l1.554-2.582c.18484594-.29511188.55121546-.42029508.878-.3l1.95.7c.5805767-.44695206 1.22513298-.80395264 1.912-1.059l.343-1.972c.06588105-.33976505.36594815-.58335884.712-.578h3.108c.3460519-.00535884.6461189.23823495.712.578l.343 1.972c.686517.25513798 1.3307303.61213532 1.911 1.059l1.95-.7c.3273698-.12056522.6944454.00457419.88.3l1.55 2.581c.1780085.29178089.1082459.67073867-.162.88l-1.61 1.271c.1239993.7005553.1239993 1.4174447 0 2.118l1.611 1.271c.2702459.2092613.3400085.5882191.162.88l-1.551 2.58c-.1858064.2951074-.5526254.4201593-.88.3l-1.95-.7c-.5796434.4472631-1.2235902.8042995-1.91 1.059l-.341 1.97c-.0680113.3412667-.3700621.5852631-.718.58h-3.1c-.34706421.005513-.64823639-.2383733-.715-.579l-.343-1.971c-.68680655-.2547383-1.3313596-.6114-1.912-1.058l-1.95.7c-.32678454.1202951-.69315406-.0048881-.878-.3l-1.553-2.582c-.1766538-.2928386-.10519761-.6716425.166-.88z" fill="#02a9f4"/><g fill="#cfd8dc"><circle id="Oval" cx="9" cy="10" r="3"/><circle id="Oval" cx="25" cy="29" r="4"/></g></g><g id="Outline" fill="#000"><path id="Shape" d="m11.047 46.117 2.447 10.764c.4038911 1.8263174 2.0255636 3.1245711 3.896 3.119h17.22c1.8716322.0075593 3.4953856-1.2906108 3.9-3.118l2.447-10.765c3.2134193-2.9793055 5.4639081-6.850369 6.463-11.117h2.58c1.6568542 0 3-1.3431458 3-3v-4c0-1.6568542-1.3431458-3-3-3h-2.586c-1.0015808-4.2712551-3.2521874-8.1475899-6.465-11.135l-2.443-10.746c-.4038911-1.82631737-2.0255636-3.12457111-3.896-3.119h-17.22c-1.8681542-.00360754-3.4868648 1.2938577-3.89 3.118l-.068.3-.176-1.01c-.1466689-.82240213-.866682-1.41804165-1.702-1.408h-3.108c-.834102-.00872623-1.55264214.5859714-1.7 1.407l-.246 1.429c-.409657.18549687-.80361234.40387789-1.178.653l-1.454-.523c-.77649092-.28122586-1.64363337.02315201-2.074.728l-1.554 2.58c-.43422533.72478699-.26299772 1.65926167.4 2.183l1.168.921c-.0395091.4137256-.0395091.8302744 0 1.244l-1.168.921c-.66284956.5233903-.83409248 1.4575204-.4 2.182l1.554 2.582c.4305743.7039965 1.29703564 1.007864 2.073.727l1.456-.523c.37438766.2491221.768343.4675031 1.178.653l.218 1.255c-4.8638463 8.8365236-3.07836066 19.8505937 4.328 26.698zm25.508 10.322c-.2004161.9130781-1.0101876 1.5629769-1.945 1.561h-17.22c-.9351141.0018744-1.7449897-.6485244-1.945-1.562l-1.889-8.308c7.4928496 5.1625326 17.3951504 5.1625326 24.888 0zm13.445-29.439c.5522847 0 1 .4477153 1 1v4c0 .5522847-.4477153 1-1 1h-2.21c.2824983-1.9900243.2824983-4.0099757 0-6zm-4 3c.0030936 8.2779406-5.0937534 15.7023194-12.8198419 18.6741652-7.7260884 2.9718457-16.4845434.8769192-22.0296995-5.2692628-5.54515604-6.1461821-6.73090665-15.0732895-2.9824586-22.4539024.382.063-.313.049 2.248.049-4.37296893 7.5668261-2.67872537 17.1814547 4.0173104 22.797754 6.6960359 5.6162994 16.4587977 5.6112329 23.1490006-.0120133 6.690203-5.6232463 8.3744664-15.2396282 3.9936461-22.8019114-4.3808203-7.5622833-13.5607249-10.8850675-21.7669571-7.8788293-.235-.463-.47-.576-1.621-1.483v-.031c6.1768163-2.61481882 13.25287-1.96109499 18.8460864 1.7411027 5.5932164 3.7021976 8.9596069 9.9604166 8.9659136 16.6678973zm-27.794-12.694 1.094-1.806c7.6811611-3.5870802 16.8281514-.6105124 20.9272623 6.8100448 4.0991108 7.4205573 1.7489324 16.7481534-5.3769381 21.3404675-7.1258705 4.5923142-16.5912304 2.8793195-21.6556551-3.9191349-5.06442479-6.7984543-3.99648173-16.3581032 2.4433309-21.8713774l.5.179c.7759366.2762276 1.6392322-.0297664 2.068-.733zm-.816-15.306h17.22c.9351141-.00187442 1.7449897.64852437 1.945 1.562l1.892 8.322c-5.4408728-3.76039744-12.2888574-4.86283661-18.635-3 .2614135-.51113592.2417729-1.12075113-.052-1.614l-1.554-2.577c-.4313481-.70303813-1.2970299-1.00663229-2.073-.727l-.85.3.162-.71c.2024409-.91109031 1.0116932-1.55849212 1.945-1.556zm-11.3 13.6c-.26943287-.2091968-.62738316-.2654569-.948-.149l-1.752.629-1.29-2.14 1.392-1.1c.28479493-.2246372.42561826-.5858797.368-.944-.10600388-.5933023-.10600388-1.2006977 0-1.794.05761826-.35812032-.08320507-.71936278-.368-.944l-1.392-1.098 1.29-2.14 1.751.628c.32074609.11510466.67802929.05894939.948-.149 1.388-1.069 2.131-.767 2.288-1.677l.299-1.722h2.648l.3 1.722c.0613041.35007868.3038105.6413148.637.765 1.656.618 1.764 1.362 2.6 1.061l1.749-.628 1.29 2.14-1.392 1.1c-.2847949.22463722-.4256183.58587968-.368.944.1060039.5933023.1060039 1.2006977 0 1.794-.0576183.3581203.0832051.7193628.368.944l1.392 1.1-1.29 2.138-1.751-.628c-.858-.312-.9.426-2.6 1.061-.3331895.1236852-.5756959.4149213-.637.765l-.298 1.722h-2.648l-.3-1.722c-.154-.897-.911-.617-2.287-1.678z"/><path id="Shape" d="m26 35c2.7614237 0 5-2.2385763 5-5s-2.2385763-5-5-5-5 2.2385763-5 5c.0033061 2.7600532 2.2399468 4.9966939 5 5zm0-8c1.6568542 0 3 1.3431458 3 3s-1.3431458 3-3 3-3-1.3431458-3-3 1.3431458-3 3-3z"/><path id="Shape" d="m14.952 21.136-2.152 3.729c-.4881944.8464646-.2932609 1.9217701.461 2.543l1.8 1.486c-.0854997.7348547-.0854997 1.4771453 0 2.212l-1.8 1.486c-.7544537.6216237-.948998 1.6975383-.46 2.544l2.153 3.728c.4868342.8492692 1.5183706 1.2192492 2.434.873l2.184-.818c.600747.4329636 1.2440737.8035466 1.92 1.106l.384 2.306c.161577.9628344.9947026 1.668307 1.971 1.669h4.306c.9776938.0001202 1.8121694-.7066252 1.973-1.671l.384-2.3c.675697-.3029028 1.3189793-.6734602 1.92-1.106l2.184.818c.9156216.347143 1.9477399-.0230457 2.434-.873l2.152-3.733c.4881944-.8464646.2932609-1.9217701-.461-2.543l-1.8-1.486c.084999-.7348837.084999-1.4771163 0-2.212l1.8-1.486c.7544537-.6216237.948998-1.6975383.46-2.544l-2.153-3.728c-.4865474-.8496115-1.5183744-1.2196957-2.434-.873l-2.184.818c-.600747-.4329636-1.2440737-.8035466-1.92-1.106l-.384-2.306c-.161577-.9628344-.9947026-1.668307-1.971-1.669h-4.306c-.9776938-.0001202-1.8121694.7066252-1.973 1.671l-.384 2.3c-.675697.3029028-1.3189793.6734602-1.92 1.106l-2.183-.818c-.916887-.3470287-1.9499452.0250419-2.435.877zm4.434 2.011c.944.356 1.04-.63 3.361-1.531.3290774-.1274735.5666002-.4189614.625-.767l.475-2.849h4.306l.475 2.849c.165 1 1.094.6 3.008 2.141.2753635.2214528.6471583.2811376.978.157l2.7-1.011 2.154 3.729-2.233 1.835c-.272049.2243884-.405798.5754794-.352.924.1559923.9086872.1559923 1.8373128 0 2.746-.053798.3485206.079951.6996116.352.924l2.234 1.839-2.154 3.728-2.7-1.011c-.3308417-.1241376-.7026365-.0644528-.978.157-1.965 1.584-2.84 1.126-3.008 2.141l-.476 2.852h-4.306l-.475-2.849c-.165-1-1.094-.6-3.008-2.141-.1779475-.1432317-.3995693-.2212228-.628-.221-.252 0-.154-.01-3.051 1.075l-2.154-3.729 2.233-1.835c.2713787-.2239966.4050564-.574141.352-.922-.4-2.6.44-3.018-.352-3.672l-2.233-1.839 2.154-3.728z"/><path id="Shape" d="m14 11c0-2.209139-1.790861-4-4-4s-4 1.790861-4 4 1.790861 4 4 4 4-1.790861 4-4zm-6 0c0-1.1045695.8954305-2 2-2s2 .8954305 2 2-.8954305 2-2 2-2-.8954305-2-2z"/><path id="Shape" d="m23 55c0 .5522847.4477153 1 1 1h4c.5522847 0 1-.4477153 1-1s-.4477153-1-1-1h-4c-.5522847 0-1 .4477153-1 1z"/><path id="Shape" d="m24 6h4c.5522847 0 1-.44771525 1-1s-.4477153-1-1-1h-4c-.5522847 0-1 .44771525-1 1s.4477153 1 1 1z"/></g></g></svg>