<?xml version="1.0"?>
<svg xmlns="http://www.w3.org/2000/svg" id="Layer_1" data-name="Layer 1" viewBox="0 0 512 512" width="512" height="512"><title>Call Enquiry</title><g id="_Group_2" data-name=" Group 2"><path d="M397.25,104.94,359.02,82.87,322.26,61.65l-74.99,43.3h-.01v86.6l75,43.31,75-43.31v-86.6ZM322.26,13.58a134.675,134.675,0,1,1-30.3,265.93L240.32,315.7l13.86-51.22a134.689,134.689,0,0,1,68.08-250.9Z" style="fill:#6fe3ff"/><polygon points="397.26 104.95 397.26 191.55 322.26 234.86 322.26 234.85 322.26 148.24 397.25 104.94 397.26 104.95" style="fill:#e5d45a"/><polygon points="322.26 148.24 284.03 126.17 359.02 82.87 397.25 104.94 322.26 148.24" style="fill:#f8ec7d"/><path d="M376.95,431.65c8.66,8.58,8.66,17.41.08,26.32-.07,0-.08.06-.03.03-2.03,2.18-4.09,4.24-6.22,6.33l-71.87-71.86-.22-.22,6.94-6.94c2.86-2.86,7.4-6.31,12.7-6.31,5.21,0,9.5,3.28,12.11,6.14a1.365,1.365,0,0,0,.17.17Z" style="fill:#af593c"/><path d="M298.91,392.47l71.87,71.86c-1.3,1.27-2.64,2.56-4.01,3.9a220.593,220.593,0,0,0-16.23,16.82c-8.5,9.08-18.5,13.37-31.62,13.37-1.26,0-2.61,0-3.87-.08-24.98-1.6-48.19-11.35-65.6-19.68a373.621,373.621,0,0,1-124.13-97.22c-28.67-34.56-47.85-66.52-60.55-100.83-7.82-20.94-10.68-37.26-9.42-52.65a38.587,38.587,0,0,1,11.61-24.97L88.2,181.76l71.9,71.9c-.1.1-.2.19-.3.29-7.06,7.23-13.79,13.96-21.1,20.52-.17.17-.34.25-.43.42-7.23,7.23-5.88,14.3-4.37,19.09.09.25.17.51.25.76,5.97,14.46,14.38,28.09,27.17,44.32l.08.08c23.21,28.59,47.69,50.88,74.68,67.95a114.309,114.309,0,0,0,10.34,5.64c3.03,1.51,5.89,2.94,8.33,4.45.34.17.67.42,1.01.59a18.243,18.243,0,0,0,8.33,2.11c6.98,0,11.35-4.38,12.78-5.81l21.82-21.82Z" style="fill:#e48e66"/><polygon points="359.02 82.87 284.03 126.17 284.02 126.17 247.27 104.95 322.26 61.65 359.02 82.87" style="fill:#f8ec7d"/><polygon points="322.26 234.85 322.26 234.86 247.26 191.55 247.26 104.95 247.27 104.95 284.02 126.17 284.03 126.17 322.26 148.24 322.26 234.85" style="fill:#f8ec7d"/><path d="M167.04,220.65c8.91,8.91,8.91,17.15,0,26.07-2.34,2.34-4.61,4.68-6.94,6.94l-71.9-71.9,7.44-7.45c4.12-3.87,8.49-5.97,12.78-5.97,5.3,0,9.59,3.19,12.28,5.88.08.09.17.17.25.26,5.13,4.79,10.01,9.75,15.14,15.05,2.61,2.69,5.3,5.38,7.99,8.16Z" style="fill:#af593c"/><path d="M119.955,385.936a380.517,380.517,0,0,0,126.474,99.039c17.959,8.592,41.937,18.671,68.176,20.351,1.482.094,2.987.094,4.315.094,14.9,0,26.912-5.1,36.73-15.587.079-.083.154-.167.227-.254a211.7,211.7,0,0,1,15.787-16.344q1.058-1.035,2.09-2.033c.648-.629,1.288-1.249,1.929-1.875,1.894-1.859,4.128-4.078,6.357-6.468l.032-.033c11.261-11.694,11.19-24.869-.172-36.126l-46.339-46.34-.056-.054c-2.912-3.157-8.928-8.306-17.175-8.306-6.076,0-12.18,2.891-17.65,8.36l-28.766,28.766c-1.122,1.124-3.752,3.754-7.824,3.754a11.281,11.281,0,0,1-5.071-1.308l-.046-.028c-.241-.151-.484-.3-.728-.432-2.706-1.658-5.753-3.177-8.694-4.643a107.966,107.966,0,0,1-9.73-5.3c-26.337-16.657-50.212-38.392-72.986-66.446-.068-.084-.14-.167-.212-.249-12.28-15.613-20.281-28.636-25.893-42.145q-.09-.282-.186-.563c-1.394-4.471-1.388-7.868,2.676-11.931.045-.045.089-.091.133-.137.034-.031.068-.062.1-.095,7.675-6.893,14.8-14.054,21.318-20.731l.2-.193h0c1.6-1.555,3.185-3.154,4.715-4.7.763-.769,1.528-1.542,2.3-2.318,11.59-11.6,11.589-24.376,0-35.967l-22.921-22.921q-2.113-2.182-4.215-4.305c-1.258-1.279-2.508-2.549-3.735-3.813-5.535-5.719-10.254-10.493-15.246-15.161-.021-.023-.045-.046-.067-.069-.051-.054-.1-.108-.156-.16-5.188-5.189-11.146-7.931-17.23-7.931-6.017,0-12.093,2.721-17.573,7.868-.054.051-.108.1-.16.156L62.01,198.041a45.381,45.381,0,0,0-13.637,29.348c-1.361,16.632,1.673,33.8,9.832,55.651C71.183,318.1,90.8,350.788,119.955,385.936ZM318.33,386c3.055,0,5.826,2.646,6.908,3.824a7.769,7.769,0,0,0,.543.556l46.242,46.243c5.893,5.838,5.9,10.3.021,16.434-.057.056-.112.114-.167.172-.372.4-.745.79-1.118,1.18L308.59,392.25l1.989-1.99C312.171,388.669,315.294,386,318.33,386ZM108.42,175.34c2.852,0,5.508,2.025,7.257,3.757.053.056.11.113.168.173q.159.168.328.326c4.831,4.511,9.445,9.18,14.892,14.808q1.884,1.941,3.812,3.891,2.076,2.107,4.173,4.263l.08.082,22.96,22.96c6.193,6.192,6.192,9.971,0,16.171q-1,1-1.983,2L98.1,181.754l2.414-2.414C103.318,176.723,106.052,175.34,108.42,175.34Zm-46.1,53.216a31.488,31.488,0,0,1,9.584-20.615L88.2,191.654l62.039,62.04c-5.111,5.162-10.524,10.464-16.21,15.567l0,0a8.065,8.065,0,0,0-1.041,1.021c-10.488,10.8-6.932,22.07-5.755,25.8.027.088.056.176.087.262.043.119.081.242.119.361l.053.167c.058.182.123.36.2.537,6.159,14.918,14.839,29.1,28.142,45.981q.157.2.329.387c23.693,29.142,48.618,51.789,76.178,69.22a120.661,120.661,0,0,0,10.969,6c2.735,1.363,5.563,2.773,7.768,4.138.131.08.265.158.4.229l.07.044c.36.226.727.442,1.092.625a25.182,25.182,0,0,0,11.461,2.849c6.551,0,12.514-2.643,17.729-7.86l16.871-16.871,62.113,62.1a220.515,220.515,0,0,0-15.484,16.131c-7.194,7.631-15.343,11.036-26.4,11.036-1.174,0-2.388,0-3.423-.066-23.84-1.526-46.205-10.96-63-19a366.515,366.515,0,0,1-121.792-95.388c-28.095-33.867-46.962-65.259-59.381-98.81C63.917,258.317,61.141,243.01,62.324,228.556Z" style="fill:#63316d"/><path d="M246.055,267.709l-12.492,46.163a7,7,0,0,0,10.775,7.561L293.466,287a142.6,142.6,0,0,0,28.794,2.928c78.117,0,141.67-63.557,141.67-141.68S400.377,6.58,322.26,6.58,180.58,70.133,180.58,148.25a141.594,141.594,0,0,0,65.475,119.459ZM322.26,20.58a127.675,127.675,0,1,1-28.731,252.108,7,7,0,0,0-5.587,1.089l-35.819,25.1,8.814-32.572a7,7,0,0,0-3.214-7.865A127.689,127.689,0,0,1,322.26,20.58Z" style="fill:#63316d"/><path d="M243.629,197.612l75.065,43.31a7.094,7.094,0,0,0,7.051,0l74.878-43.31A6.891,6.891,0,0,0,404,191.55v-86.6a6.882,6.882,0,0,0-1.8-4.827l.055-.011a6.871,6.871,0,0,0-1.536-1.235l-74.974-43.29a6.985,6.985,0,0,0-6.992,0L243.886,98.744A7.113,7.113,0,0,0,240,104.95v86.6A7.126,7.126,0,0,0,243.629,197.612ZM254,117.069l26.377,15.163L284,126.161v.019l-3.612,6.052L315,152.282v70.452l-61-35.225Zm68.26,23.088-24.23-13.988,60.99-35.216,24.23,13.988ZM329,222.734V152.281l61-35.222v70.45Zm-6.74-153,22.76,13.138L284.025,118.09l-22.756-13.14Z" style="fill:#63316d"/></g></svg>
