<svg id="Layer_35" enable-background="new 0 0 64 64" height="512" viewBox="0 0 64 64" width="512" xmlns="http://www.w3.org/2000/svg"><path d="m2 10v-8h50v8h-27z" fill="#b4dd7f"/><path d="m2 10h50v32h-50z" fill="#e6e9ed"/><path d="m25 24c-2.48 0-4.74 1.01-6.36 2.64-1.63 1.62-2.64 3.88-2.64 6.36v8c0 .35.06.69.18 1 .4 1.17 1.51 2 2.82 2h1v11.5c0 .69.28 1.32.73 1.77s1.08.73 1.77.73c1.38 0 2.5-1.12 2.5-2.5 0 1.38 1.12 2.5 2.5 2.5.69 0 1.32-.28 1.77-.73s.73-1.08.73-1.77v-12.5-4-1-1c0-2.48 1.01-4.74 2.64-6.36.26-.26.53-.5.82-.73-1.26-3.45-4.57-5.91-8.46-5.91z" fill="#ffeaa7"/><circle cx="25" cy="18" fill="#ffeaa7" r="6"/><path d="m44.54 29.91c-1.52-1.2-3.45-1.91-5.54-1.91s-4.02.71-5.54 1.91c-.29.23-.56.47-.82.73-1.63 1.62-2.64 3.88-2.64 6.36v1 1 4c0 1.66 1.34 3 3 3h1v13.5c0 .69.28 1.32.73 1.77s1.08.73 1.77.73c1.38 0 2.5-1.12 2.5-2.5 0 1.38 1.12 2.5 2.5 2.5.69 0 1.32-.28 1.77-.73s.73-1.08.73-1.77v-13.5h1c1.66 0 3-1.34 3-3v-4-1-1c0-2.88-1.35-5.44-3.46-7.09z" fill="#ef7385"/><circle cx="39" cy="22" fill="#ef7385" r="6"/><path d="m53 24c-1.94 0-3.74.62-5.22 1.66-1.47 1.05-2.61 2.52-3.24 4.25 2.11 1.65 3.46 4.21 3.46 7.09v1 1 4 12.5c0 .69.28 1.32.73 1.77s1.08.73 1.77.73c1.38 0 2.5-1.12 2.5-2.5 0 1.38 1.12 2.5 2.5 2.5.69 0 1.32-.28 1.77-.73s.73-1.08.73-1.77v-11.5h1c1.66 0 3-1.34 3-3v-8c0-4.97-4.03-9-9-9z" fill="#ffeaa7"/><path d="m59 18c0-3.31-2.69-6-6-6-.34 0-.68.03-1 .09-2.84.47-5 2.94-5 5.91 0 3.31 2.69 6 6 6s6-2.69 6-6z" fill="#ffeaa7"/><path d="m56.915 23.8c1.86-1.26 3.085-3.389 3.085-5.8 0-3.86-3.141-7-7-7v-10h-52v42h14.556c.694 1.19 1.97 2 3.444 2v10.5c0 1.93 1.57 3.5 3.5 3.5.98 0 1.864-.407 2.5-1.058.636.651 1.52 1.058 2.5 1.058 1.93 0 3.5-1.57 3.5-3.5v-9.056c.591.344 1.268.556 2 .556v12.5c0 1.93 1.57 3.5 3.5 3.5.98 0 1.864-.407 2.5-1.058.636.651 1.52 1.058 2.5 1.058 1.93 0 3.5-1.57 3.5-3.5v-12.5c.732 0 1.409-.212 2-.556v9.056c0 1.93 1.57 3.5 3.5 3.5.98 0 1.864-.407 2.5-1.058.636.651 1.52 1.058 2.5 1.058 1.93 0 3.5-1.57 3.5-3.5v-10.5c2.206 0 4-1.794 4-4v-8c0-4.125-2.512-7.674-6.085-9.2zm1.085-5.8c0 2.757-2.243 5-5 5s-5-2.243-5-5 2.243-5 5-5 5 2.243 5 5zm-7-15v6h-48v-6zm-48 38v-30h22 26v.295c-2.887.863-5 3.541-5 6.705 0 2.414 1.229 4.547 3.093 5.805-2.121.905-3.898 2.528-4.978 4.618-.386-.231-.783-.445-1.2-.623 1.86-1.26 3.085-3.389 3.085-5.8 0-3.86-3.141-7-7-7s-7 3.14-7 7c0 2.411 1.225 4.54 3.085 5.8-.417.178-.814.392-1.2.623-1.079-2.089-2.857-3.713-4.978-4.618 1.864-1.258 3.093-3.391 3.093-5.805 0-3.86-3.141-7-7-7s-7 3.14-7 7c0 2.411 1.225 4.54 3.085 5.8-3.573 1.526-6.085 5.075-6.085 9.2v8zm31-19c0-2.757 2.243-5 5-5s5 2.243 5 5-2.243 5-5 5-5-2.243-5-5zm-14-4c0-2.757 2.243-5 5-5s5 2.243 5 5-2.243 5-5 5-5-2.243-5-5zm9 37.5c0 .827-.673 1.5-1.5 1.5s-1.5-.673-1.5-1.5v-16.5h-2v16.5c0 .827-.673 1.5-1.5 1.5s-1.5-.673-1.5-1.5v-23.5h-2v11c-1.103 0-2-.897-2-2v-8c0-4.411 3.589-8 8-8 3.124 0 5.943 1.852 7.241 4.652-1.987 1.828-3.241 4.441-3.241 7.348v1 5zm16-10.5v-9h-2v23.5c0 .827-.673 1.5-1.5 1.5s-1.5-.673-1.5-1.5v-16.5h-2v16.5c0 .827-.673 1.5-1.5 1.5s-1.5-.673-1.5-1.5v-23.5h-2v9c-1.103 0-2-.897-2-2v-5-1c0-4.411 3.589-8 8-8s8 3.589 8 8v1 5c0 1.103-.897 2-2 2zm16-4c0 1.103-.897 2-2 2v-11h-2v23.5c0 .827-.673 1.5-1.5 1.5s-1.5-.673-1.5-1.5v-16.5h-2v16.5c0 .827-.673 1.5-1.5 1.5s-1.5-.673-1.5-1.5v-12.5-5-1c0-2.907-1.254-5.52-3.241-7.348 1.298-2.8 4.117-4.652 7.241-4.652 4.411 0 8 3.589 8 8z"/><path d="m5 5h2v2h-2z"/><path d="m9 5h2v2h-2z"/><path d="m13 5h2v2h-2z"/><path d="m5 13h2v2h-2z"/><path d="m9 13h2v2h-2z"/><path d="m13 13h2v2h-2z"/><path d="m5 17h10v2h-10z"/><path d="m5 21h10v2h-10z"/><path d="m5 25h10v2h-10z"/><path d="m5 29h8v2h-8z"/><path d="m5 33h8v2h-8z"/><path d="m5 37h8v2h-8z"/></svg>