<svg enable-background="new 0 0 58 58" height="512" viewBox="0 0 58 58" width="512" xmlns="http://www.w3.org/2000/svg"><path d="m54.75 58h-51.5c-1.795 0-3.25-1.455-3.25-3.25v-43.75h58v43.75c0 1.795-1.455 3.25-3.25 3.25z" fill="#e7eced"/><path d="m4 32h14v22h-14z" fill="#23a24d"/><path d="m40 32h14v22h-14z" fill="#ebba16"/><path d="m58 12h-58v-8.75c0-1.795 1.455-3.25 3.25-3.25h51.5c1.795 0 3.25 1.455 3.25 3.25z" fill="#556080"/><path d="m4 4h4v4h-4z" fill="#dd352e"/><path d="m12 4h4v4h-4z" fill="#ebba16"/><path d="m20 4h4v4h-4z" fill="#23a24d"/><path clip-rule="evenodd" d="m8 36h6v6h-6z" fill="#fff" fill-rule="evenodd"/><path d="m4 16h50v8h-50z" fill="#fff"/><path d="m44 21h-36c-.552 0-1-.447-1-1s.448-1 1-1h36c.552 0 1 .447 1 1s-.448 1-1 1z" fill="#dd352e"/><path d="m50 21h-2c-.552 0-1-.447-1-1s.448-1 1-1h2c.552 0 1 .447 1 1s-.448 1-1 1z" fill="#ebba16"/><path d="m22 32h14v22h-14z" fill="#dd352e"/><path d="m54 29h-44c-.552 0-1-.447-1-1s.448-1 1-1h44c.552 0 1 .447 1 1s-.448 1-1 1z" fill="#1081e0"/><path d="m6 29h-2c-.552 0-1-.447-1-1s.448-1 1-1h2c.552 0 1 .447 1 1s-.448 1-1 1z" fill="#7383bf"/><g fill="#fff"><path d="m14 47h-6c-.552 0-1-.447-1-1s.448-1 1-1h6c.552 0 1 .447 1 1s-.448 1-1 1z"/><path d="m14 51h-6c-.552 0-1-.447-1-1s.448-1 1-1h6c.552 0 1 .447 1 1s-.448 1-1 1z"/><path clip-rule="evenodd" d="m26 36h6v6h-6z" fill-rule="evenodd"/><path d="m32 47h-6c-.552 0-1-.447-1-1s.448-1 1-1h6c.552 0 1 .447 1 1s-.448 1-1 1z"/><path d="m32 51h-6c-.552 0-1-.447-1-1s.448-1 1-1h6c.552 0 1 .447 1 1s-.448 1-1 1z"/><path clip-rule="evenodd" d="m44 36h6v6h-6z" fill-rule="evenodd"/><path d="m50 47h-6c-.552 0-1-.447-1-1s.448-1 1-1h6c.552 0 1 .447 1 1s-.448 1-1 1z"/><path d="m50 51h-6c-.552 0-1-.447-1-1s.448-1 1-1h6c.552 0 1 .447 1 1s-.448 1-1 1z"/></g></svg>