<svg height="512pt" viewBox="0 0 512 512" width="512pt" xmlns="http://www.w3.org/2000/svg"><path d="m336 304h32v144h-32zm0 0" fill="#c6c5ca"/><path d="m368 304v46.558594c-5.121094.960937-10.558594 1.441406-16 1.441406s-10.878906-.480469-16-1.441406v-46.558594zm0 0" fill="#acabb1"/><path d="m304 432h96v32h-96zm0 0" fill="#acabb1"/><path d="m112 240h192v32h-192zm0 0" fill="#c6c5ca"/><path d="m192 112h32v144h-32zm0 0" fill="#c6c5ca"/><path d="m48 304h32v96h-32zm0 0" fill="#acabb1"/><path d="m224 112v46.558594c-5.121094.960937-10.558594 1.441406-16 1.441406s-10.878906-.480469-16-1.441406v-46.558594zm0 0" fill="#acabb1"/><g fill="#ef5350"><path d="m272 64c0 35.347656-28.652344 64-64 64s-64-28.652344-64-64 28.652344-64 64-64 64 28.652344 64 64zm0 0"/><path d="m320 448c0 35.347656-28.652344 64-64 64s-64-28.652344-64-64 28.652344-64 64-64 64 28.652344 64 64zm0 0"/><path d="m512 448c0 35.347656-28.652344 64-64 64s-64-28.652344-64-64 28.652344-64 64-64 64 28.652344 64 64zm0 0"/></g><path d="m257.441406 240h46.558594v32h-46.558594c-.960937-5.121094-1.441406-10.558594-1.441406-16s.480469-10.878906 1.441406-16zm0 0" fill="#acabb1"/><path d="m416 256c0 35.347656-28.652344 64-64 64s-64-28.652344-64-64 28.652344-64 64-64 64 28.652344 64 64zm0 0" fill="#fdd835"/><path d="m160 256c0 5.441406-.480469 10.878906-1.441406 16h-46.558594v-32h46.558594c.960937 5.121094 1.441406 10.558594 1.441406 16zm0 0" fill="#acabb1"/><path d="m128 256c0 35.347656-28.652344 64-64 64s-64-28.652344-64-64 28.652344-64 64-64 64 28.652344 64 64zm0 0" fill="#8bc34a"/><path d="m128 448c0 35.347656-28.652344 64-64 64s-64-28.652344-64-64 28.652344-64 64-64 64 28.652344 64 64zm0 0" fill="#64b5f6"/><path d="m208 96c-29.726562 0-54.574219-20.464844-61.726562-48-1.34375 5.152344-2.273438 10.449219-2.273438 16 0 35.296875 28.703125 64 64 64s64-28.703125 64-64c0-5.550781-.929688-10.847656-2.273438-16-7.152343 27.535156-32 48-61.726562 48zm0 0" fill="#e53935"/><path d="m352 288c-29.726562 0-54.574219-20.464844-61.726562-48-1.34375 5.152344-2.273438 10.449219-2.273438 16 0 35.296875 28.703125 64 64 64s64-28.703125 64-64c0-5.550781-.929688-10.847656-2.273438-16-7.152343 27.535156-32 48-61.726562 48zm0 0" fill="#fbc02d"/><path d="m64 288c-29.726562 0-54.574219-20.464844-61.726562-48-1.34375 5.152344-2.273438 10.449219-2.273438 16 0 35.296875 28.703125 64 64 64s64-28.703125 64-64c0-5.550781-.929688-10.847656-2.273438-16-7.152343 27.535156-32 48-61.726562 48zm0 0" fill="#689f38"/><path d="m64 480c-29.726562 0-54.574219-20.464844-61.726562-48-1.34375 5.152344-2.273438 10.449219-2.273438 16 0 35.296875 28.703125 64 64 64s64-28.703125 64-64c0-5.550781-.929688-10.847656-2.273438-16-7.152343 27.535156-32 48-61.726562 48zm0 0" fill="#42a5f5"/><path d="m256 480c-29.726562 0-54.574219-20.464844-61.726562-48-1.34375 5.152344-2.273438 10.449219-2.273438 16 0 35.296875 28.703125 64 64 64s64-28.703125 64-64c0-5.550781-.929688-10.847656-2.273438-16-7.152343 27.535156-32 48-61.726562 48zm0 0" fill="#e53935"/><path d="m448 480c-29.726562 0-54.574219-20.464844-61.726562-48-1.34375 5.152344-2.273438 10.449219-2.273438 16 0 35.296875 28.703125 64 64 64s64-28.703125 64-64c0-5.550781-.929688-10.847656-2.273438-16-7.152343 27.535156-32 48-61.726562 48zm0 0" fill="#e53935"/></svg>