<svg height="512" viewBox="0 0 64 64" width="512" xmlns="http://www.w3.org/2000/svg"><path d="m57 49v-12h-18v12z" fill="#ffe477"/><path d="m61 7v44a2.006 2.006 0 0 1 -2 2h-27l-10-8h9a2.006 2.006 0 0 0 2-2v-.17a2.006 2.006 0 0 0 -.59-1.42l-1.46-1.46-6.94-6.07a2.01 2.01 0 0 0 -2.21-.28l-8.8 4.4v-31a2.006 2.006 0 0 1 2-2h44a2.006 2.006 0 0 1 2 2z" fill="#ffe477"/><path d="m39 37h18v12h-18z" fill="#00d7df"/><path d="m50 53a3 3 0 0 1 0 6h-26.76a3.015 3.015 0 0 1 -2.12-.88l-8.12-8.12v-12l8.8-4.4a2.01 2.01 0 0 1 2.21.28l6.94 6.07 1.46 1.46a2.006 2.006 0 0 1 .59 1.42v.17a2.006 2.006 0 0 1 -2 2h-9l10 8z" fill="#ffdaaa"/><path d="m42 5v24l-5-5-5 5v-24z" fill="#c0ab91"/><path d="m13 52h-4v-16h4v2z" fill="#00d7df"/><path d="m9 37v14l-6 2v-18z" fill="#ffdaaa"/><path d="m59 4h-44a3 3 0 0 0 -3 3v28h-3a1 1 0 0 0 -.927.637l-4.757-1.586a1 1 0 0 0 -1.316.949v18a1 1 0 0 0 1 1 1.01 1.01 0 0 0 .316-.051l4.757-1.586a1 1 0 0 0 .927.637h4a.993.993 0 0 0 .93-.656l6.483 6.483a3.98 3.98 0 0 0 2.832 1.173h26.755a4 4 0 0 0 4-4 3.959 3.959 0 0 0 -.556-2h5.556a3 3 0 0 0 3-3v-44a3 3 0 0 0 -3-3zm-26 2h8v20.586l-3.293-3.293a1 1 0 0 0 -1.414 0l-3.293 3.293zm-29 30.387 4 1.334v12.558l-4 1.334zm8 14.613h-2v-14h2zm40 5a2 2 0 0 1 -2 2h-26.755a1.991 1.991 0 0 1 -1.418-.587l-7.827-7.827v-10.968l8.247-4.123a.993.993 0 0 1 1.105.141l6.891 6.021 1.464 1.464a1 1 0 0 1 .293.708v.171a1 1 0 0 1 -1 1h-9a1 1 0 0 0 -.625 1.781l10 8a1 1 0 0 0 .625.219h18a2 2 0 0 1 2 2zm8-5a1 1 0 0 1 -1 1h-26.649l-7.5-6h6.149a3 3 0 0 0 3-3v-.171a2.98 2.98 0 0 0 -.879-2.122l-1.513-1.507-6.94-6.067a2.988 2.988 0 0 0 -3.315-.424l-7.353 3.673v-29.382a1 1 0 0 1 1-1h16v23a1 1 0 0 0 1.707.707l4.293-4.293 4.293 4.293a1 1 0 0 0 1.707-.707v-23h16a1 1 0 0 1 1 1z"/><path d="m5 42h2v4h-2z"/><path d="m42 40h2v6h-2z"/><path d="m46 42h4v2h-4z"/><path d="m52 40h2v6h-2z"/><path d="m57 36h-18a1 1 0 0 0 -1 1v12a1 1 0 0 0 1 1h18a1 1 0 0 0 1-1v-12a1 1 0 0 0 -1-1zm-1 12h-16v-10h16z"/></svg>