<svg height="511pt" viewBox="1 -4 511.99998 511" width="511pt" xmlns="http://www.w3.org/2000/svg"><path d="m153.601562 358.898438h204.796876v136.53125h-204.796876zm0 0" fill="#ea9d2d"/><path d="m358.398438 358.898438h-204.796876l34.132813-85.332032h136.53125zm0 0" fill="#c38325"/><path d="m153.601562 358.898438h-59.734374l34.132812-85.332032h59.734375zm0 0" fill="#f7ba61"/><path d="m358.398438 358.898438h59.734374l-34.132812-85.332032h-59.734375zm0 0" fill="#f7ba61"/><path d="m281.601562 418.632812-25.601562-8.535156-25.601562 8.535156v-59.734374h51.203124zm0 0" fill="#f55648"/><path d="m332.800781 461.296875h-42.667969c-4.710937 0-8.53125-3.820313-8.53125-8.53125 0-4.714844 3.820313-8.535156 8.53125-8.535156h42.667969c4.710938 0 8.53125 3.820312 8.53125 8.535156 0 4.710937-3.820312 8.53125-8.53125 8.53125zm0 0" fill="#c38325"/><path d="m187.734375 273.566406h136.53125v85.332032h-136.53125zm0 0" fill="#da922a"/><path d="m477.867188 154.097656c0 23.5625-19.101563 42.667969-42.667969 42.667969-23.5625 0-42.664063-19.105469-42.664063-42.667969s19.101563-42.667968 42.664063-42.667968c23.566406 0 42.667969 19.105468 42.667969 42.667968zm0 0" fill="#f7ba61"/><path d="m452.265625 196.765625c0 23.5625-19.101563 42.664063-42.664063 42.664063-23.566406 0-42.667968-19.101563-42.667968-42.664063 0-23.566406 19.101562-42.667969 42.667968-42.667969 23.5625 0 42.664063 19.101563 42.664063 42.667969zm0 0" fill="#6cbae5"/><path d="m503.464844 196.765625c0 23.5625-19.101563 42.664063-42.664063 42.664063-23.566406 0-42.667969-19.101563-42.667969-42.664063 0-23.566406 19.101563-42.667969 42.667969-42.667969 23.5625 0 42.664063 19.101563 42.664063 42.667969zm0 0" fill="#f55648"/><path d="m418.472656 193.351562c.949219-12.101562 7.039063-23.214843 16.726563-30.523437-12.109375-9.296875-28.292969-11.332031-42.324219-5.316406 1.214844 15.773437 11.070312 29.574219 25.597656 35.839843zm0 0" fill="#89b140"/><path d="m435.199219 162.828125c9.6875 7.308594 15.777343 18.421875 16.726562 30.523437 14.527344-6.265624 24.386719-20.066406 25.597657-35.839843-14.03125-6.015625-30.214844-3.980469-42.324219 5.316406zm0 0" fill="#f27e55"/><path d="m452.265625 196.765625c0-1.167969-.253906-2.269531-.339844-3.414063-10.6875 4.554688-22.765625 4.554688-33.453125 0-.082031 1.144532-.339844 2.242188-.339844 3.414063.027344 13.367187 6.351563 25.941406 17.066407 33.9375 10.71875-7.996094 17.039062-20.570313 17.066406-33.9375zm0 0" fill="#d970a2"/><path d="m435.199219 162.828125c-9.6875 7.308594-15.777344 18.421875-16.722657 30.523437 10.683594 4.554688 22.761719 4.554688 33.449219 0-.949219-12.101562-7.039062-23.214843-16.726562-30.523437zm0 0" fill="#3bd6d0"/><path d="m256 205.050781-59.734375-48.273437 59.734375-48.273438 59.734375 48.273438zm0 0" fill="#f7ba61"/><path d="m256 156.777344-59.734375-48.273438 59.734375-48.273437 59.734375 48.273437zm0 0" fill="#aedee2"/><path d="m256 105.578125-59.734375-48.273437 59.734375-48.273438 59.734375 48.273438zm0 0" fill="#d970a2"/><path d="m102.398438 137.03125c.097656-23.5625-18.929688-42.742188-42.492188-42.835938-23.566406-.097656-42.746094 18.929688-42.839844 42.492188-.054687 13.59375 6.371094 26.394531 17.296875 34.476562h-.230469v42.667969h51.199219v-42.667969h-.230469c10.851563-7.992187 17.269532-20.65625 17.296876-34.132812zm0 0" fill="#f7ba61"/><path d="m59.734375 213.832031c-4.714844 0-8.535156-3.820312-8.535156-8.535156v-59.730469c0-4.714844 3.820312-8.535156 8.535156-8.535156 4.710937 0 8.53125 3.820312 8.53125 8.535156v59.730469c0 4.714844-3.820313 8.535156-8.53125 8.535156zm0 0" fill="#ea9d2d"/><path d="m59.734375 154.097656c-9.425781 0-17.066406-7.640625-17.066406-17.066406s7.640625-17.066406 17.066406-17.066406 17.066406 7.640625 17.066406 17.066406-7.640625 17.066406-17.066406 17.066406zm0 0" fill="#ea9d2d"/><path d="m34.132812 205.296875h51.199219v8.535156c0 14.136719-11.460937 25.597657-25.597656 25.597657-14.140625 0-25.601563-11.460938-25.601563-25.597657zm0 0" fill="#6fbbc6"/><path d="m145.066406 145.566406h17.066406v17.066406h-17.066406zm0 0" fill="#aedee2"/><g fill="#f7ba61"><path d="m51.199219 51.699219h17.066406v17.066406h-17.066406zm0 0"/><path d="m102.398438 68.765625h17.066406v17.066406h-17.066406zm0 0"/><path d="m0 68.765625h17.066406v17.066406h-17.066406zm0 0"/></g><path d="m247.464844 230.898438h17.070312v17.066406h-17.070312zm0 0" fill="#aedee2"/><path d="m358.398438 85.832031h17.066406v17.066407h-17.066406zm0 0" fill="#aedee2"/><path d="m358.398438 503.964844h-204.796876c-4.714843 0-8.535156-3.816406-8.535156-8.535156v-136.53125c0-4.71875 3.820313-8.535157 8.535156-8.535157h204.796876c4.71875 0 8.535156 3.816407 8.535156 8.535157v136.53125c0 4.71875-3.816406 8.535156-8.535156 8.535156zm-196.265626-17.066406h187.734376v-119.46875h-187.734376zm0 0"/><path d="m358.398438 367.429688h-204.796876c-2.835937 0-5.480468-1.40625-7.066406-3.75-1.589844-2.339844-1.910156-5.324219-.859375-7.949219l34.132813-85.332031c1.300781-3.242188 4.4375-5.367188 7.925781-5.367188h136.53125c3.492187 0 6.625 2.125 7.925781 5.367188l34.132813 85.332031c1.050781 2.625.726562 5.609375-.855469 7.949219-1.59375 2.34375-4.234375 3.75-7.070312 3.75zm-192.195313-17.066407h179.597656l-27.308593-68.265625h-124.980469zm0 0"/><path d="m153.601562 367.429688h-59.734374c-2.835938 0-5.480469-1.40625-7.066407-3.75-1.589843-2.339844-1.910156-5.324219-.859375-7.949219l34.132813-85.332031c1.300781-3.242188 4.4375-5.367188 7.925781-5.367188h59.734375c2.832031 0 5.476563 1.40625 7.066406 3.75 1.585938 2.339844 1.90625 5.324219.855469 7.949219l-34.132812 85.335937c-1.296876 3.238282-4.4375 5.363282-7.921876 5.363282zm-47.128906-17.066407h41.347656l27.308594-68.265625h-41.351562zm0 0"/><path d="m418.132812 367.429688h-59.734374c-3.488282 0-6.625-2.125-7.921876-5.367188l-34.136718-85.332031c-1.046875-2.625-.722656-5.609375.859375-7.949219 1.59375-2.34375 4.234375-3.75 7.066406-3.75h59.734375c3.492188 0 6.625 2.125 7.925781 5.367188l34.132813 85.332031c1.050781 2.625.722656 5.609375-.859375 7.949219-1.589844 2.34375-4.234375 3.75-7.066407 3.75zm-53.957031-17.066407h41.359375l-27.308594-68.265625h-41.359374zm0 0"/><path d="m281.601562 427.164062c-.910156 0-1.816406-.140624-2.703124-.441406l-22.898438-7.632812-22.898438 7.632812c-2.613281.882813-5.464843.433594-7.6875-1.167968-2.230468-1.605469-3.546874-4.183594-3.546874-6.921876v-59.734374c0-4.71875 3.820312-8.535157 8.53125-8.535157h51.203124c4.714844 0 8.53125 3.816407 8.53125 8.535157v59.734374c0 2.738282-1.316406 5.316407-3.542968 6.921876-1.472656 1.058593-3.222656 1.609374-4.988282 1.609374zm-25.601562-25.597656c.914062 0 1.820312.148438 2.699219.441406l14.367187 4.78125v-39.359374h-34.132812v39.359374l14.367187-4.78125c.878907-.292968 1.785157-.441406 2.699219-.441406zm0 0"/><path d="m332.800781 461.296875h-42.667969c-4.714843 0-8.53125-3.816406-8.53125-8.53125 0-4.71875 3.816407-8.535156 8.53125-8.535156h42.667969c4.714844 0 8.53125 3.816406 8.53125 8.535156 0 4.714844-3.816406 8.53125-8.53125 8.53125zm0 0"/><path d="m324.265625 367.429688h-136.53125c-4.714844 0-8.535156-3.816407-8.535156-8.53125v-85.332032c0-4.71875 3.820312-8.535156 8.535156-8.535156h136.53125c4.71875 0 8.535156 3.816406 8.535156 8.535156v85.332032c0 4.714843-3.816406 8.53125-8.535156 8.53125zm-128-17.066407h119.46875v-68.265625h-119.46875zm0 0"/><path d="m435.199219 205.296875c-28.234375 0-51.199219-22.964844-51.199219-51.199219s22.964844-51.199218 51.199219-51.199218 51.199219 22.964843 51.199219 51.199218-22.964844 51.199219-51.199219 51.199219zm0-85.332031c-18.824219 0-34.132813 15.3125-34.132813 34.132812 0 18.820313 15.308594 34.132813 34.132813 34.132813s34.132812-15.3125 34.132812-34.132813c0-18.820312-15.308593-34.132812-34.132812-34.132812zm0 0"/><path d="m409.601562 247.964844c-28.234374 0-51.203124-22.96875-51.203124-51.199219 0-28.234375 22.96875-51.203125 51.203124-51.203125 28.230469 0 51.199219 22.96875 51.199219 51.203125 0 28.230469-22.96875 51.199219-51.199219 51.199219zm0-85.332032c-18.828124 0-34.136718 15.3125-34.136718 34.132813s15.308594 34.132813 34.136718 34.132813c18.824219 0 34.132813-15.3125 34.132813-34.132813s-15.308594-34.132813-34.132813-34.132813zm0 0"/><path d="m460.800781 247.964844c-28.234375 0-51.199219-22.96875-51.199219-51.199219 0-28.234375 22.964844-51.203125 51.199219-51.203125s51.199219 22.96875 51.199219 51.203125c0 28.230469-22.964844 51.199219-51.199219 51.199219zm0-85.332032c-18.824219 0-34.132812 15.3125-34.132812 34.132813s15.308593 34.132813 34.132812 34.132813 34.132813-15.3125 34.132813-34.132813-15.308594-34.132813-34.132813-34.132813zm0 0"/><path d="m256 213.585938c-1.898438 0-3.800781-.632813-5.363281-1.894532l-59.730469-48.277344c-2.007812-1.621093-3.171875-4.058593-3.171875-6.636718 0-2.574219 1.160156-5.015625 3.171875-6.636719l28.765625-23.253906c3.65625-2.964844 9.035156-2.402344 12 1.273437 2.960937 3.664063 2.390625 9.039063-1.277344 12l-20.554687 16.617188 46.160156 37.304687 46.160156-37.304687-20.269531-16.375c-3.664063-2.960938-4.230469-8.335938-1.265625-12 2.957031-3.667969 8.316406-4.238282 12-1.273438l28.476562 23.011719c2 1.621094 3.164063 4.058594 3.164063 6.636719s-1.164063 5.015625-3.164063 6.636718l-59.738281 48.273438c-1.5625 1.265625-3.464843 1.898438-5.363281 1.898438zm0 0"/><path d="m256 165.308594c-1.898438 0-3.800781-.632813-5.363281-1.894532l-59.730469-48.269531c-2.007812-1.621093-3.171875-4.058593-3.171875-6.636719 0-2.582031 1.164063-5.019531 3.171875-6.640624l29.921875-24.183594c3.664063-2.953125 9.039063-2.394532 12 1.277344 2.964844 3.660156 2.394531 9.035156-1.273437 12l-21.714844 17.546874 46.160156 37.296876 46.160156-37.296876-21.675781-17.523437c-3.667969-2.960937-4.234375-8.335937-1.265625-12.003906 2.957031-3.65625 8.324219-4.226563 12-1.269531l29.882812 24.15625c2 1.621093 3.164063 4.0625 3.164063 6.640624 0 2.578126-1.164063 5.015626-3.164063 6.636719l-59.738281 48.269531c-1.5625 1.261719-3.464843 1.894532-5.363281 1.894532zm0 0"/><path d="m256 114.109375c-1.898438 0-3.800781-.632813-5.363281-1.894531l-59.730469-48.269532c-2.007812-1.621093-3.171875-4.058593-3.171875-6.640624 0-2.578126 1.164063-5.015626 3.171875-6.636719l59.730469-48.273438c3.125-2.527343 7.601562-2.527343 10.726562 0l59.738281 48.273438c2 1.621093 3.164063 4.058593 3.164063 6.636719 0 2.582031-1.164063 5.019531-3.164063 6.640624l-59.738281 48.269532c-1.5625 1.261718-3.464843 1.894531-5.363281 1.894531zm-46.160156-56.804687 46.160156 37.300781 46.160156-37.300781-46.160156-37.300782zm0 0"/><path d="m85.332031 213.832031h-51.199219c-4.710937 0-8.53125-3.820312-8.53125-8.535156v-30.277344c-10.820312-9.699219-17.125-23.71875-17.066406-38.363281.050782-13.679688 5.429688-26.515625 15.140625-36.144531 9.65625-9.582031 22.453125-14.851563 36.050781-14.851563h.210938c13.679688.054688 26.515625 5.433594 36.144531 15.140625 9.628907 9.710938 14.902344 22.582031 14.851563 36.246094-.035156 14.519531-6.332032 28.390625-17.066406 37.980469v30.269531c0 4.714844-3.820313 8.535156-8.535157 8.535156zm-42.664062-17.066406h34.132812v-24.179687c-.554687-3.136719.621094-6.363282 3.242188-8.292969 8.632812-6.355469 13.796875-16.558594 13.824219-27.277344 0-.007813 0-.011719 0-.015625.035156-9.117188-3.480469-17.707031-9.902344-24.175781-6.417969-6.476563-14.976563-10.058594-24.09375-10.097657-.050782 0-.097656 0-.144532 0-9.066406 0-17.59375 3.511719-24.03125 9.902344-6.472656 6.417969-10.058593 14.976563-10.09375 24.09375-.042968 10.828125 5.128907 21.136719 13.835938 27.582032 2.761719 2.042968 4.011719 5.527343 3.230469 8.824218zm0 0"/><path d="m59.734375 213.832031c-4.714844 0-8.535156-3.820312-8.535156-8.535156v-59.730469c0-4.714844 3.820312-8.535156 8.535156-8.535156 4.710937 0 8.53125 3.820312 8.53125 8.535156v59.730469c0 4.714844-3.820313 8.535156-8.53125 8.535156zm0 0"/><path d="m59.734375 154.097656c-9.414063 0-17.066406-7.652344-17.066406-17.066406s7.652343-17.066406 17.066406-17.066406c9.410156 0 17.066406 7.652344 17.066406 17.066406s-7.65625 17.066406-17.066406 17.066406zm0 0"/><path d="m59.734375 247.964844c-18.820313 0-34.132813-15.3125-34.132813-34.132813v-8.535156c0-4.710937 3.820313-8.53125 8.53125-8.53125h51.199219c4.714844 0 8.535157 3.820313 8.535157 8.53125v8.535156c0 18.820313-15.3125 34.132813-34.132813 34.132813zm-17.066406-34.132813c0 9.410157 7.652343 17.066407 17.066406 17.066407 9.410156 0 17.066406-7.65625 17.066406-17.066407zm0 0"/><path d="m145.066406 145.566406h17.066406v17.066406h-17.066406zm0 0"/><path d="m51.199219 51.699219h17.066406v17.066406h-17.066406zm0 0"/><path d="m102.398438 68.765625h17.066406v17.066406h-17.066406zm0 0"/><path d="m0 68.765625h17.066406v17.066406h-17.066406zm0 0"/><path d="m247.464844 230.898438h17.070312v17.066406h-17.070312zm0 0"/><path d="m358.398438 85.832031h17.066406v17.066407h-17.066406zm0 0"/></svg>